<?xml version="1.0" encoding="utf-8"?>	<!-- Generator: Assembly 2.4 - http://assemblyapp.co -->
<svg version="1.1" xmlns="http://www.w3.org/2000/svg" xmlns:xlink="http://www.w3.org/1999/xlink"
  width="4096.00" height="4096.00" viewBox="0 0 4096.0 4096.0">
  <g id="document" transform="scale(13.653333333333334 13.653333333333334) translate(150.0 150.0)">
    <path
      d="M-330.198,-14.3896 C-316.648,-14.3896 -305.714,-25.5619 -305.476,-38.8736 L-305.476,-195.761 C-305.476,-209.311 -316.411,-220.483 -330.198,-220.483 L-487.086,-220.483 C-500.635,-220.483 -511.807,-209.548 -511.807,-195.761 L-511.807,-39.1113 C-511.807,-25.5619 -500.873,-14.3896 -487.086,-14.3896 L-330.198,-14.3896 Z "
      fill="#f896f3" fill-opacity="1.00" />
    <path
      d="M-342.803,-30.9475 C-331.43,-30.9475 -322.253,-40.3246 -322.053,-51.4974 L-322.053,-183.176 C-322.053,-194.548 -331.231,-203.925 -342.803,-203.925 L-474.481,-203.925 C-485.853,-203.925 -495.23,-194.748 -495.23,-183.176 L-495.23,-51.6969 C-495.23,-40.3246 -486.053,-30.9475 -474.481,-30.9475 L-342.803,-30.9475 Z "
      fill="#f895ad" fill-opacity="1.00" />
    <path
      d="M15.367,-249.985 C19.1445,-250.588 20.8131,-252.4 23.7813,-254.817 C26.7494,-257.233 27.2396,-259.651 28.6132,-263.231 C29.9868,-266.811 29.2758,-269.137 28.6132,-272.895 C27.9506,-276.652 25.9629,-278.26 23.7813,-281.267 C21.5996,-284.274 19.8865,-284.922 15.367,-286.141 C10.8475,-287.359 8.34022,-287.059 5.70314,-286.141 C3.06606,-285.223 0.299168,-283.688 -2.66945,-281.267 C-5.63806,-278.847 -6.17131,-276.46 -7.54304,-272.895 C-8.91477,-269.33 -8.15635,-267.007 -7.54304,-263.231 C-6.92973,-259.454 -5.0898,-257.788 -2.66945,-254.817 C-0.249086,-251.845 2.1384,-251.344 5.70314,-249.985 C9.26788,-248.626 11.5895,-249.381 15.367,-249.985 Z "
      fill="#9b2895" fill-opacity="0.42" />
    <path
      d="M-365.541,-82.0427 C-365.541,-89.8705 -370.517,-96.2162 -376.656,-96.2162 C-382.795,-96.2162 -387.771,-89.8705 -387.771,-82.0427 C-387.771,-74.2149 -382.795,-67.8692 -376.656,-67.8692 C-370.517,-67.8692 -365.541,-74.2149 -365.541,-82.0427 Z "
      fill="#ffffff" fill-opacity="1.00" />
    <path
      d="M-84.5812,30.4483 L-84.5812,35.5114 L-23.5117,40.7747 L-23.5117,35.5114 L-18.7188,35.5114 L-13.926,35.5114 C-13.926,35.5114 -13.926,35.5114 -13.926,35.5114 L-5.81051,35.5114 L-5.81051,30.1106 L-1.07802,30.0903 C7.10651,30.0552 13.6826,23.2782 13.7917,15.2367 L13.3855,-79.5315 C13.3504,-87.716 6.71638,-94.4363 -1.61173,-94.4006 L-96.3799,-93.9943 C-104.564,-93.9593 -111.285,-87.3253 -111.249,-78.9972 L-110.843,15.6274 C-110.808,23.8119 -104.174,30.5323 -95.8462,30.4966 L-84.5812,30.4483 L-84.5812,30.4483 Z M-10.5838,40.7747 L-47.5799,25.8938 L-50.5234,19.9791 L-56.4877,25.8938 C-56.4877,25.8938 -61.2829,28.5601 -61.2829,28.5601 L-55.7545,21.8961 L-61.2829,24.1397 C-61.2829,24.1397 -66.1975,21.8961 -66.1975,21.8961 L-68.9166,24.1397 C-70.3122,24.1397 -80.5853,30.4237 -80.5853,28.5601 L-84.5812,35.5114 L-87.9744,35.5114 C-87.9745,35.5114 -87.9745,35.5114 -87.9745,35.5114 L-102.164,35.5114 C-104.028,35.5114 -105.565,37.0154 -105.565,38.9117 L-105.565,60.458 C-105.565,62.3217 -104.061,63.8584 -102.164,63.8584 L-87.9745,63.8584 C-87.9745,63.8584 -87.9745,63.8584 -87.9744,63.8584 L-84.2799,63.8584 L-80.5853,63.8584 C-80.5853,63.8584 -80.5853,63.8584 -80.5853,63.8584 L-80.5853,63.8584 L-67.3917,63.8584 C-67.3917,63.8584 -67.3917,63.8584 -67.3917,63.8584 L-66.8936,63.8584 L-66.3954,63.8584 C-66.3954,63.8584 -66.3954,63.8584 -66.3954,63.8584 L-10.5838,63.8584 L-10.5838,40.7747 Z M-32.2615,35.5114 L-35.5051,25.8938 L-32.2615,35.5114 L-32.2615,35.5114 Z M-5.81051,35.5114 L-32.2615,35.5114 L-24.1941,40.7747 C-24.1941,40.7747 -24.1941,40.7747 -24.1941,40.7747 L-20.6668,40.7747 L-17.1396,40.7747 C-17.1395,40.7747 -17.1395,40.7747 -17.1395,40.7747 L-8.31298,40.7747 C-6.94143,40.7747 -5.83457,39.238 -5.81051,37.4071 L-5.81051,35.5114 Z M-117.579,83.4357 C-117.784,83.5942 -117.931,83.8188 -117.983,84.0774 L-117.993,84.1345 C-118.001,84.1854 -118.005,84.2376 -118.005,84.2907 L-118.005,91.2639 C-118.005,91.8671 -117.496,92.3644 -116.855,92.3644 L-109.559,92.3644 C-109.401,92.3644 -109.25,92.333 -109.113,92.2767 C-108.975,92.3331 -108.822,92.3644 -108.662,92.3644 L-101.672,92.3644 L-97.1805,92.3644 C-97.7043,88.4064 -97.6223,86.1506 -97.3182,84.8676 L-97.7684,84.8516 C-100.296,91.9325 -100.778,92.3644 -101.365,92.3644 L-95.9313,92.3644 L-90.3758,92.3644 L-90.13,92.3644 L-89.8841,92.3644 C-89.8841,92.3644 -89.8841,92.3644 -89.8841,92.3644 L-74.6609,92.3644 C-75.3021,92.3644 -75.6091,91.8776 -75.6091,91.2745 L-74.8474,85.6644 L-76.7589,85.5966 L-76.7589,91.2639 C-76.7589,91.8671 -76.2503,92.3644 -75.6091,92.3644 L-64.2754,92.3644 C-49.545,91.9823 -49.9908,92.3377 -50.5234,92.3377 L-45.0895,92.3377 L-39.5341,92.3377 L-39.2882,92.3377 L-39.0424,92.3377 C-39.0424,92.3377 -39.0424,92.3377 -39.0424,92.3377 L-23.8192,92.3377 C-24.4603,92.3377 -24.7674,91.8509 -24.7674,91.2478 L-24.2529,87.4583 L-25.9171,87.3993 L-25.9171,91.2372 C-25.9171,91.8404 -25.4086,92.3377 -24.7674,92.3377 L-17.4711,92.3377 C-16.8409,92.3377 -16.3324,91.8404 -16.3213,91.2478 L-16.3213,87.7396 L1.46768,88.3703 L-10.5838,66.1829 L-106.718,66.1829 L-117.579,83.4357 L-117.579,83.4357 Z M-66.5667,85.958 L-66.5667,85.958 Z M-25.9171,87.3993 L-46.7017,86.6623 L-25.9171,87.3993 Z M-81.9287,92.3644 L-79.9186,92.3644 L-81.9286,92.3644 C-81.9286,92.3644 -81.9287,92.3644 -81.9287,92.3644 Z M-84.1422,92.3644 L-83.0795,92.3644 C-83.0795,92.3644 -83.0794,92.3644 -83.0794,92.3644 L-84.1422,92.3644 Z M-31.0869,92.3377 L-29.0769,92.3377 L-31.0869,92.3377 C-31.0869,92.3377 -31.0869,92.3377 -31.0869,92.3377 Z M-33.3005,92.3377 L-32.2377,92.3377 C-32.2377,92.3377 -32.2377,92.3377 -32.2377,92.3377 L-33.3005,92.3377 Z M-35.5051,63.8584 L-49.5073,63.8584 L-45.8127,63.8584 L-35.5051,63.8584 C-35.5051,63.8584 -35.5051,63.8584 -35.5051,63.8584 L-33.5639,63.8584 L-35.5051,63.8584 Z "
      fill="#000000" fill-opacity="1.00" stroke-width="20.22" stroke="#000000"
      stroke-linecap="square" stroke-linejoin="miter" />
    <path
      d="M-10.5768,66.1829 L-106.711,66.1829 L-118.012,84.1336 L1.47466,88.3703 L-10.5768,66.1829 Z "
      fill="#c6c6c6" fill-opacity="1.00" />
    <path
      d="M-67.1561,84.2907 L-67.1561,91.2372 C-67.1561,91.8404 -66.6476,92.3377 -66.0064,92.3377 L-58.71,92.3377 C-58.5518,92.3377 -58.4013,92.3063 -58.2643,92.25 C-58.1261,92.3064 -57.9736,92.3377 -57.8128,92.3377 L-50.8231,92.3377 L-46.3318,92.3377 C-47.4815,83.6503 -45.7127,83.1635 -45.0825,83.1635 L-57.8128,83.1635 C-57.9714,83.1635 -58.1229,83.1943 -58.2609,83.2502 C-58.3985,83.1944 -58.5501,83.1635 -58.71,83.1635 L-66.0064,83.1635 C-66.6365,83.1635 -71.7073,83.0902 -71.7073,83.7039 L-67.1561,84.2907 C-67.1561,83.6875 -67.6646,83.1902 -68.3058,83.1902 L-75.6022,83.1902 C-76.2323,83.1902 -76.7519,83.677 -76.7519,84.2907 L-76.7519,91.2639 C-76.7519,91.8671 -76.2434,92.3644 -75.6022,92.3644 L-64.2684,92.3644 L-67.1561,84.2907 C-67.1561,84.2907 -67.1561,84.2907 -67.1561,84.2907 L-67.1561,84.2907 Z M-81.9217,92.3644 L-79.9116,92.3644 L-81.9217,92.3644 C-81.9217,92.3644 -81.9217,92.3644 -81.9217,92.3644 Z M-77.9016,83.1902 L-77.9016,83.1902 C-77.9016,83.1902 -77.9016,83.1902 -77.9016,83.1902 L-77.9016,83.1902 Z M-79.9116,83.1902 L-81.9217,83.1902 C-81.9217,83.1902 -81.9217,83.1902 -81.9217,83.1902 L-79.9116,83.1902 Z M-83.0725,83.1902 C-83.0725,83.1902 -83.0725,83.1902 -83.0725,83.1902 L-84.1352,83.1902 L-83.0725,83.1902 L-83.0725,83.1902 Z M-85.198,83.1902 L-89.8771,83.1902 C-89.8771,83.1902 -89.8771,83.1902 -89.8772,83.1902 L-90.123,83.1902 L-90.3688,83.1902 C-90.3688,83.1902 -90.3689,83.1902 -90.3689,83.1902 L-94.675,83.1902 C-94.675,83.1902 -94.675,83.1902 -94.6751,83.1902 L-95.9243,83.1902 L-97.1735,83.1902 C-97.1735,83.1902 -97.1735,83.1902 -97.1735,83.1902 C-100.22,91.8671 -100.728,92.3644 -101.358,92.3644 L-95.9243,92.3644 L-90.3688,92.3644 L-90.123,92.3644 L-89.8772,92.3644 C-89.8771,92.3644 -89.8771,92.3644 -89.8771,92.3644 L-74.6539,92.3644 C-75.2951,92.3644 -75.6022,91.8776 -75.6022,91.2745 L-74.6539,84.2907 C-74.6539,83.677 -75.2841,83.1902 -74.6539,83.1902 L-85.198,83.1902 Z M-84.1352,92.3644 L-83.0725,92.3644 C-83.0725,92.3644 -83.0725,92.3644 -83.0725,92.3644 L-84.1352,92.3644 Z M-101.665,92.3644 L-97.1735,92.3644 C-98.3232,83.677 -96.5544,83.1902 -95.9243,83.1902 L-108.655,83.1902 C-108.813,83.1902 -108.965,83.221 -109.103,83.2769 C-109.24,83.2211 -109.392,83.1902 -109.552,83.1902 L-116.848,83.1902 C-117.478,83.1902 -117.998,83.677 -117.998,84.2907 L-117.998,91.2639 C-117.998,91.8671 -117.489,92.3644 -116.848,92.3644 L-109.552,92.3644 C-109.394,92.3644 -109.243,92.333 -109.106,92.2767 C-108.968,92.3331 -108.815,92.3644 -108.655,92.3644 L-101.665,92.3644 Z M-31.08,92.3377 L-29.0699,92.3377 L-31.0799,92.3377 C-31.0799,92.3377 -31.0799,92.3377 -31.08,92.3377 Z M-27.0599,83.1635 L-27.0598,83.1635 C-27.0599,83.1635 -27.0599,83.1635 -27.0599,83.1635 L-27.0599,83.1635 Z M-29.0699,83.1635 L-31.0799,83.1635 C-31.0799,83.1635 -31.0799,83.1635 -31.0799,83.1635 L-29.0699,83.1635 Z M-32.2307,83.1635 L-32.2307,83.1635 L-33.2935,83.1635 L-32.2307,83.1635 C-32.2307,83.1635 -32.2307,83.1635 -32.2307,83.1635 Z M-34.3562,83.1635 L-39.0354,83.1635 C-39.0354,83.1635 -39.0354,83.1635 -39.0354,83.1635 L-39.2813,83.1635 L-39.5271,83.1635 C-39.5271,83.1635 -39.5271,83.1635 -39.5271,83.1635 L-43.8333,83.1635 C-43.8333,83.1635 -43.8333,83.1635 -43.8333,83.1635 L-45.0825,83.1635 L-46.3318,83.1635 C-46.3318,83.1635 -46.3318,83.1635 -46.3318,83.1635 C-49.3778,91.8404 -49.8863,92.3377 -50.5165,92.3377 L-45.0825,92.3377 L-39.5271,92.3377 L-39.2813,92.3377 L-39.0354,92.3377 C-39.0354,92.3377 -39.0354,92.3377 -39.0354,92.3377 L-23.8122,92.3377 C-24.4534,92.3377 -24.7604,91.8509 -24.7604,91.2478 L-23.8122,84.264 C-23.8122,83.6503 -24.4423,83.1635 -23.8122,83.1635 L-34.3562,83.1635 Z M-33.2935,92.3377 L-32.2307,92.3377 C-32.2307,92.3377 -32.2307,92.3377 -32.2307,92.3377 L-33.2935,92.3377 Z M-17.4641,92.3377 C-16.8339,92.3377 -16.3254,91.8404 -16.3144,91.2478 L-16.3144,84.264 C-16.3144,83.6608 -16.8229,83.1635 -17.4641,83.1635 L-24.7604,83.1635 C-25.3906,83.1635 -25.9102,83.6503 -25.9102,84.264 L-25.9102,91.2372 C-25.9102,91.8404 -25.4016,92.3377 -24.7604,92.3377 L-17.4641,92.3377 Z "
      fill="#d8d8d8" fill-opacity="1.00" />
    <path
      d="M-33.0137,12.4277 L-35.1901,12.4277 L-30.4257,12.4277 C-30.4257,12.4277 -33.0137,12.4277 -33.0137,12.4277 L-40.5996,12.4277 C-40.5996,12.4277 -40.5996,12.4277 -40.5996,12.4277 L-43.3186,12.4277 L-46.0377,12.4277 C-46.0377,12.4277 -46.0377,12.4277 -46.0377,12.4277 L-55.7475,12.4277 C-55.7475,12.4277 -55.7475,12.4277 -55.7475,12.4277 L-56.1141,12.4277 L-56.4807,12.4277 C-56.4807,12.4277 -56.4807,12.4277 -56.4807,12.4277 L-66.1906,12.4277 C-66.1906,12.4277 -66.1906,12.4277 -66.1906,12.4277 L-68.9096,12.4277 L-71.6287,12.4277 C-71.6287,12.4277 -71.6287,12.4277 -71.6287,12.4277 L-82.0717,12.4277 C-83.4432,12.4277 -84.5742,13.9317 -84.5742,15.8281 L-84.5742,37.3744 C-84.5742,39.238 -83.4673,40.7747 -82.0717,40.7747 L-71.6287,40.7747 C-71.6287,40.7747 -71.6287,40.7747 -71.6287,40.7747 L-68.9096,40.7747 L-66.1906,40.7747 C-66.1906,40.7747 -66.1906,40.7747 -66.1906,40.7747 L-66.1906,40.7747 L-56.4807,40.7747 C-56.4807,40.7747 -56.4807,40.7747 -56.4807,40.7747 L-56.1141,40.7747 L-55.7475,40.7747 C-55.7475,40.7747 -55.7475,40.7747 -55.7475,40.7747 L-30.4257,40.7747 L-33.0137,12.4277 Z M-33.0137,40.7747 L-31.5851,40.7747 L-33.0137,40.7747 C-33.0137,40.7747 -33.0137,40.7747 -33.0137,40.7747 L-40.5996,40.7747 C-40.5996,40.7747 -40.5996,40.7747 -40.5996,40.7747 L-43.3186,40.7747 L-33.0137,40.7747 Z M-31.5851,40.7747 L-24.1871,40.7747 C-24.1871,40.7747 -24.1871,40.7747 -24.1871,40.7747 L-20.6598,40.7747 L-17.1326,40.7747 C-17.1326,40.7747 -17.1326,40.7747 -17.1326,40.7747 L-8.30601,40.7747 C-6.93445,40.7747 -5.82759,39.238 -5.80353,37.4071 L-5.80353,15.8281 C-5.80353,13.9644 -6.9104,12.4277 -8.30601,12.4277 L-17.1326,12.4277 L-17.1326,12.4277 C-17.1326,12.4277 -17.1326,12.4277 -17.1326,12.4277 L-20.6598,12.4277 L-24.1871,12.4277 C-24.1871,12.4277 -24.1871,12.4277 -24.1871,12.4277 L-35.1901,12.4277 L-31.5851,40.7747 Z "
      fill="#c7c7c7" fill-opacity="1.00" />
    <path
      d="M-35.4981,35.5114 L-38.4554,35.5114 L-31.9815,35.5114 C-31.9815,35.5114 -35.4981,35.5114 -35.4981,35.5114 L-45.8057,35.5114 C-45.8057,35.5114 -45.8057,35.5114 -45.8057,35.5114 L-49.5003,35.5114 L-53.1949,35.5114 C-53.1949,35.5114 -53.1949,35.5114 -53.1949,35.5114 L-66.3884,35.5114 C-66.3884,35.5114 -66.3884,35.5114 -66.3885,35.5114 L-66.8866,35.5114 L-67.3847,35.5114 C-67.3847,35.5114 -67.3847,35.5114 -67.3847,35.5114 L-80.5783,35.5114 C-80.5783,35.5114 -80.5783,35.5114 -80.5783,35.5114 L-84.2729,35.5114 L-87.9675,35.5114 C-87.9675,35.5114 -87.9675,35.5114 -87.9675,35.5114 L-102.157,35.5114 C-104.021,35.5114 -105.558,37.0154 -105.558,38.9117 L-105.558,60.458 C-105.558,62.3217 -104.054,63.8583 -102.157,63.8583 L-87.9675,63.8583 C-87.9675,63.8583 -87.9675,63.8583 -87.9675,63.8583 L-84.2729,63.8583 L-80.5783,63.8583 C-80.5783,63.8583 -80.5783,63.8583 -80.5783,63.8583 L-80.5783,63.8583 L-67.3847,63.8583 C-67.3847,63.8583 -67.3847,63.8583 -67.3847,63.8583 L-66.8866,63.8583 L-66.3885,63.8583 C-66.3884,63.8583 -66.3884,63.8583 -66.3884,63.8583 L-31.9815,63.8583 L-35.4981,35.5114 Z M-35.4981,63.8583 L-33.557,63.8583 L-35.4981,63.8583 C-35.4981,63.8583 -35.4981,63.8583 -35.4981,63.8583 L-45.8057,63.8583 C-45.8057,63.8583 -45.8057,63.8583 -45.8057,63.8583 L-49.5003,63.8583 L-35.4981,63.8583 Z M-33.557,63.8583 L-23.5047,63.8583 C-23.5047,63.8583 -23.5047,63.8583 -23.5047,63.8583 L-18.7119,63.8583 L-13.9191,63.8583 C-13.9191,63.8583 -13.9191,63.8583 -13.9191,63.8583 L-1.92567,63.8583 C-0.0620237,63.8583 1.44196,62.3217 1.47466,60.4907 L1.47466,38.9117 C1.47466,37.0481 -0.0293362,35.5114 -1.92567,35.5114 L-13.9191,35.5114 L-13.9191,35.5114 C-13.9191,35.5114 -13.9191,35.5114 -13.9191,35.5114 L-18.7119,35.5114 L-23.5047,35.5114 C-23.5047,35.5114 -23.5047,35.5114 -23.5047,35.5114 L-38.4554,35.5114 L-33.557,63.8583 Z "
      fill="#d8d8d8" fill-opacity="1.00" />
    <path
      d="M-1.07104,30.0903 C7.11348,30.0552 13.6896,23.2782 13.7987,15.2367 L13.3924,-79.5315 C13.3573,-87.716 6.72336,-94.4363 -1.60475,-94.4006 L-96.3729,-93.9944 C-104.557,-93.9593 -111.278,-87.3253 -111.242,-78.9972 L-110.836,15.6274 C-110.801,23.8119 -104.167,30.5323 -95.8392,30.4966 L-1.07104,30.0903 Z "
      fill="#d8d8d8" fill-opacity="1.00" />
    <path
      d="M-8.39898,21.0174 C-1.43414,21.0174 4.18661,15.2745 4.3088,8.43182 L4.3088,-72.2137 C4.3088,-79.1786 -1.31195,-84.9215 -8.39898,-84.9215 L-89.0445,-84.9215 C-96.0094,-84.9215 -101.752,-79.3007 -101.752,-72.2137 L-101.752,8.30963 C-101.752,15.2745 -96.1315,21.0174 -89.0445,21.0174 L-8.39898,21.0174 Z "
      fill="#4f4f4f" fill-opacity="1.00" />
    <path d="M-93.0075,-77.6201 L-43.633,-77.6201 " fill="none" stroke-width="2.97" stroke="#53b7f2"
      stroke-linecap="square" stroke-linejoin="miter" />
    <path d="M-72.2229,-77.6201 L-22.8484,-77.6201 " fill="none" stroke-width="2.97"
      stroke="#53b7f2" stroke-linecap="square" stroke-linejoin="miter" />
    <path d="M-93.0075,-71.2023 L-43.633,-71.2023 " fill="none" stroke-width="2.97" stroke="#ffc95f"
      stroke-linecap="square" stroke-linejoin="miter" />
    <path d="M-70.7382,-71.2023 L-21.3637,-71.2023 " fill="none" stroke-width="2.97"
      stroke="#ffc95f" stroke-linecap="square" stroke-linejoin="miter" />
    <path d="M-93.0075,-71.2023 L-43.633,-71.2023 " fill="none" stroke-width="2.97" stroke="#53b7f2"
      stroke-linecap="square" stroke-linejoin="miter" />
    <path d="M-72.2229,-71.2023 L-22.8484,-71.2023 " fill="none" stroke-width="2.97"
      stroke="#53b7f2" stroke-linecap="square" stroke-linejoin="miter" />
    <path d="M-93.0075,-64.8244 L-43.633,-64.8244 " fill="none" stroke-width="2.97" stroke="#53b7f2"
      stroke-linecap="square" stroke-linejoin="miter" />
    <path d="M-72.2229,-64.8244 L-22.8484,-64.8244 " fill="none" stroke-width="2.97"
      stroke="#53b7f2" stroke-linecap="square" stroke-linejoin="miter" />
    <path d="M-93.0075,-58.4066 L-43.633,-58.4066 " fill="none" stroke-width="2.97" stroke="#ffc95f"
      stroke-linecap="square" stroke-linejoin="miter" />
    <path d="M-70.7381,-58.4066 L-21.3637,-58.4066 " fill="none" stroke-width="2.97"
      stroke="#ffc95f" stroke-linecap="square" stroke-linejoin="miter" />
    <path d="M-93.0075,-58.4066 L-43.633,-58.4066 " fill="none" stroke-width="2.97" stroke="#f5a0b5"
      stroke-linecap="square" stroke-linejoin="miter" />
    <path d="M-72.2229,-58.4066 L-22.8484,-58.4066 " fill="none" stroke-width="2.97"
      stroke="#f5a0b5" stroke-linecap="square" stroke-linejoin="miter" />
    <path d="M-93.0075,-51.9888 L-43.633,-51.9888 " fill="none" stroke-width="2.97" stroke="#ffc95f"
      stroke-linecap="square" stroke-linejoin="miter" />
    <path d="M-70.7381,-51.9888 L-21.3637,-51.9888 " fill="none" stroke-width="2.97"
      stroke="#ffc95f" stroke-linecap="square" stroke-linejoin="miter" />
    <path d="M-93.0075,-51.9023 L-43.633,-51.9023 " fill="none" stroke-width="2.97" stroke="#f5a0b5"
      stroke-linecap="square" stroke-linejoin="miter" />
    <path d="M-72.2229,-51.9023 L-22.8484,-51.9023 " fill="none" stroke-width="2.97"
      stroke="#f5a0b5" stroke-linecap="square" stroke-linejoin="miter" />
    <path d="M-93.0075,-45.4845 L-43.633,-45.4845 " fill="none" stroke-width="2.97" stroke="#ffc95f"
      stroke-linecap="square" stroke-linejoin="miter" />
    <path d="M-70.7381,-45.4845 L-21.3637,-45.4845 " fill="none" stroke-width="2.97"
      stroke="#ffc95f" stroke-linecap="square" stroke-linejoin="miter" />
    <path d="M-93.0075,-45.4845 L-43.633,-45.4845 " fill="none" stroke-width="2.97" stroke="#f5a0b5"
      stroke-linecap="square" stroke-linejoin="miter" />
    <path d="M-72.2229,-45.4845 L-22.8484,-45.4845 " fill="none" stroke-width="2.97"
      stroke="#f5a0b5" stroke-linecap="square" stroke-linejoin="miter" />
    <path d="M-93.0075,-39.0667 L-43.633,-39.0667 " fill="none" stroke-width="2.97" stroke="#ffc95f"
      stroke-linecap="square" stroke-linejoin="miter" />
    <path d="M-70.7381,-39.0667 L-21.3637,-39.0667 " fill="none" stroke-width="2.97"
      stroke="#ffc95f" stroke-linecap="square" stroke-linejoin="miter" />
    <path d="M-93.0075,-39.1066 L-43.633,-39.1066 " fill="none" stroke-width="2.97" stroke="#ffffff"
      stroke-linecap="square" stroke-linejoin="miter" />
    <path d="M-72.2229,-39.1066 L-22.8484,-39.1066 " fill="none" stroke-width="2.97"
      stroke="#ffffff" stroke-linecap="square" stroke-linejoin="miter" />
    <path d="M-93.0075,-32.6888 L-43.633,-32.6888 " fill="none" stroke-width="2.97" stroke="#ffc95f"
      stroke-linecap="square" stroke-linejoin="miter" />
    <path d="M-70.7381,-32.6888 L-21.3637,-32.6888 " fill="none" stroke-width="2.97"
      stroke="#ffc95f" stroke-linecap="square" stroke-linejoin="miter" />
    <path d="M-93.0075,-32.6888 L-43.633,-32.6888 " fill="none" stroke-width="2.97" stroke="#ffffff"
      stroke-linecap="square" stroke-linejoin="miter" />
    <path d="M-72.2229,-32.6888 L-22.8484,-32.6888 " fill="none" stroke-width="2.97"
      stroke="#ffffff" stroke-linecap="square" stroke-linejoin="miter" />
    <path d="M-93.0075,-26.271 L-43.633,-26.271 " fill="none" stroke-width="2.97" stroke="#ffc95f"
      stroke-linecap="square" stroke-linejoin="miter" />
    <path d="M-70.7381,-26.271 L-21.3637,-26.271 " fill="none" stroke-width="2.97" stroke="#ffc95f"
      stroke-linecap="square" stroke-linejoin="miter" />
    <path d="M-93.0075,-26.271 L-43.633,-26.271 " fill="none" stroke-width="2.97" stroke="#ffffff"
      stroke-linecap="square" stroke-linejoin="miter" />
    <path d="M-72.2229,-26.271 L-22.8484,-26.271 " fill="none" stroke-width="2.97" stroke="#ffffff"
      stroke-linecap="square" stroke-linejoin="miter" />
    <path d="M-93.0075,-19.8532 L-43.633,-19.8532 " fill="none" stroke-width="2.97" stroke="#ffc95f"
      stroke-linecap="square" stroke-linejoin="miter" />
    <path d="M-70.7381,-19.8532 L-21.3637,-19.8532 " fill="none" stroke-width="2.97"
      stroke="#ffc95f" stroke-linecap="square" stroke-linejoin="miter" />
    <path d="M-93.0075,-19.8532 L-43.633,-19.8532 " fill="none" stroke-width="2.97" stroke="#f5a0b5"
      stroke-linecap="square" stroke-linejoin="miter" />
    <path d="M-72.2229,-19.8532 L-22.8484,-19.8532 " fill="none" stroke-width="2.97"
      stroke="#f5a0b5" stroke-linecap="square" stroke-linejoin="miter" />
    <path d="M-93.0075,-13.6237 L-43.633,-13.6237 " fill="none" stroke-width="2.97" stroke="#f5a0b5"
      stroke-linecap="square" stroke-linejoin="miter" />
    <path d="M-72.2229,-13.6237 L-22.8484,-13.6237 " fill="none" stroke-width="2.97"
      stroke="#f5a0b5" stroke-linecap="square" stroke-linejoin="miter" />
    <path d="M-72.2229,-7.20593 L-22.8484,-7.20593 " fill="none" stroke-width="2.97"
      stroke="#f5a0b5" stroke-linecap="square" stroke-linejoin="miter" />
    <path d="M-93.0075,-7.20593 L-43.633,-7.20593 " fill="none" stroke-width="2.97" stroke="#f5a0b5"
      stroke-linecap="square" stroke-linejoin="miter" />
    <path d="M-93.0075,-0.828067 L-43.633,-0.828067 " fill="none" stroke-width="2.97"
      stroke="#53b7f2" stroke-linecap="square" stroke-linejoin="miter" />
    <path d="M-72.2229,-0.828067 L-22.8484,-0.828067 " fill="none" stroke-width="2.97"
      stroke="#53b7f2" stroke-linecap="square" stroke-linejoin="miter" />
    <path d="M-93.0075,5.58974 L-43.633,5.58974 " fill="none" stroke-width="2.97" stroke="#ffc95f"
      stroke-linecap="square" stroke-linejoin="miter" />
    <path d="M-70.7381,5.58974 L-21.3637,5.58974 " fill="none" stroke-width="2.97" stroke="#ffc95f"
      stroke-linecap="square" stroke-linejoin="miter" />
    <path d="M-93.0075,5.58974 L-43.633,5.58974 " fill="none" stroke-width="2.97" stroke="#53b7f2"
      stroke-linecap="square" stroke-linejoin="miter" />
    <path d="M-72.2229,5.58974 L-22.8484,5.58974 " fill="none" stroke-width="2.97" stroke="#53b7f2"
      stroke-linecap="square" stroke-linejoin="miter" />
    <path d="M-93.0075,12.0076 L-43.633,12.0076 " fill="none" stroke-width="2.97" stroke="#53b7f2"
      stroke-linecap="square" stroke-linejoin="miter" />
    <path d="M-70.7381,12.0076 L-21.3637,12.0076 " fill="none" stroke-width="2.97" stroke="#53b7f2"
      stroke-linecap="square" stroke-linejoin="miter" />
    <path
      d="M-52.8629,15.1674 L-52.8629,8.70932 L-56.2026,8.70932 L-56.2026,15.1674 L-52.8629,15.1674 Z "
      fill="#4e4e4e" fill-opacity="1.00" />
    <path
      d="M-70.5966,2.91242 L-70.5966,-3.54562 L-73.9363,-3.54562 L-73.9363,2.91242 L-70.5966,2.91242 Z "
      fill="#4e4e4e" fill-opacity="1.00" />
    <path
      d="M-57.6207,1.68693 L-57.6207,-4.77111 L-60.9604,-4.77111 L-60.9604,1.68693 L-57.6207,1.68693 Z "
      fill="#4e4e4e" fill-opacity="1.00" />
    <path
      d="M-67.8572,-16.6234 L-67.8572,-23.0814 L-71.1969,-23.0814 L-71.1969,-16.6234 L-67.8572,-16.6234 Z "
      fill="#4e4e4e" fill-opacity="1.00" />
    <path
      d="M-88.0418,-10.7843 L-88.0418,-17.2423 L-91.3815,-17.2423 L-91.3815,-10.7843 L-88.0418,-10.7843 Z "
      fill="#4e4e4e" fill-opacity="1.00" />
    <path
      d="M-72.6871,-22.9671 L-72.6871,-29.4252 L-76.0268,-29.4252 L-76.0268,-22.9671 L-72.6871,-22.9671 Z "
      fill="#4e4e4e" fill-opacity="1.00" />
    <path
      d="M-62.5227,-22.8229 L-62.5227,-29.281 L-65.8624,-29.281 L-65.8624,-22.8229 L-62.5227,-22.8229 Z "
      fill="#4e4e4e" fill-opacity="1.00" />
    <path
      d="M-66.055,-29.7434 L-66.055,-36.2014 L-69.3947,-36.2014 L-69.3947,-29.7434 L-66.055,-29.7434 Z "
      fill="#4e4e4e" fill-opacity="1.00" />
    <path
      d="M-63.8924,-35.8708 L-63.8924,-42.3289 L-67.2321,-42.3289 L-67.2321,-35.8708 L-63.8924,-35.8708 Z "
      fill="#4e4e4e" fill-opacity="1.00" />
    <path
      d="M-56.4673,-34.7174 L-56.4673,-41.1755 L-59.807,-41.1755 L-59.807,-34.7174 L-56.4673,-34.7174 Z "
      fill="#4e4e4e" fill-opacity="1.00" />
    <path
      d="M-63.2436,-48.6304 L-63.2436,-55.0884 L-66.5833,-55.0884 L-66.5833,-48.6304 L-63.2436,-48.6304 Z "
      fill="#4e4e4e" fill-opacity="1.00" />
    <path
      d="M-54.4489,-49.2071 L-54.4489,-55.6651 L-57.7886,-55.6651 L-57.7886,-49.2071 L-54.4489,-49.2071 Z "
      fill="#4e4e4e" fill-opacity="1.00" />
    <path
      d="M-74.8497,-42.3587 L-74.8497,-48.8168 L-78.1894,-48.8168 L-78.1894,-42.3587 L-74.8497,-42.3587 Z "
      fill="#4e4e4e" fill-opacity="1.00" />
    <path
      d="M-66.1992,-42.5029 L-66.1992,-48.961 L-69.5389,-48.961 L-69.5389,-42.5029 L-66.1992,-42.5029 Z "
      fill="#4e4e4e" fill-opacity="1.00" />
    <path
      d="M-55.4581,-41.8541 L-55.4581,-48.3122 L-58.7978,-48.3122 L-58.7978,-41.8541 L-55.4581,-41.8541 Z "
      fill="#4e4e4e" fill-opacity="1.00" />
    <path
      d="M-47.4759,-54.5692 L-47.4759,-61.0272 L-50.8156,-61.0272 L-50.8156,-54.5692 L-47.4759,-54.5692 Z "
      fill="#4e4e4e" fill-opacity="1.00" />
    <path
      d="M-82.7355,-47.044 L-82.7355,-53.502 L-86.0752,-53.502 L-86.0752,-47.044 L-82.7355,-47.044 Z "
      fill="#4e4e4e" fill-opacity="1.00" />
    <path
      d="M-87.745,-35.8267 L-87.745,-42.2847 L-91.0847,-42.2847 L-91.0847,-35.8267 L-87.745,-35.8267 Z "
      fill="#4e4e4e" fill-opacity="1.00" />
    <path
      d="M-81.077,-28.6421 L-81.077,-35.1001 L-84.4167,-35.1001 L-84.4167,-28.6421 L-81.077,-28.6421 Z "
      fill="#4e4e4e" fill-opacity="1.00" />
    <path
      d="M-84.6928,-15.8695 L-84.6928,-22.3275 L-88.0325,-22.3275 L-88.0325,-15.8695 L-84.6928,-15.8695 Z "
      fill="#4e4e4e" fill-opacity="1.00" />
    <path
      d="M-75.066,-4.0801 L-75.066,-10.5381 L-78.4057,-10.5381 L-78.4057,-4.0801 L-75.066,-4.0801 Z "
      fill="#4e4e4e" fill-opacity="1.00" />
    <path
      d="M-69.4431,-9.77504 L-69.4431,-16.2331 L-72.7828,-16.2331 L-72.7828,-9.77504 L-69.4431,-9.77504 Z "
      fill="#4e4e4e" fill-opacity="1.00" />
    <path
      d="M-58.7021,-9.27043 L-58.7021,-15.7285 L-62.0418,-15.7285 L-62.0418,-9.27043 L-58.7021,-9.27043 Z "
      fill="#4e4e4e" fill-opacity="1.00" />
    <path
      d="M-68.5781,-3.79175 L-68.5781,-10.2498 L-71.9178,-10.2498 L-71.9178,-3.79175 L-68.5781,-3.79175 Z "
      fill="#4e4e4e" fill-opacity="1.00" />
    <path
      d="M-86.2396,3.12868 L-86.2396,-3.32935 L-89.5793,-3.32935 L-89.5793,3.12868 L-86.2396,3.12868 Z "
      fill="#4e4e4e" fill-opacity="1.00" />
    <path
      d="M-74.1289,8.89571 L-74.1289,2.43768 L-77.4686,2.43768 L-77.4686,8.89571 L-74.1289,8.89571 Z "
      fill="#4e4e4e" fill-opacity="1.00" />
    <path
      d="M-62.6669,9.76077 L-62.6669,3.30273 L-66.0066,3.30273 L-66.0066,9.76077 L-62.6669,9.76077 Z "
      fill="#4e4e4e" fill-opacity="1.00" />
    <path
      d="M-80.2563,15.1674 L-80.2563,8.70932 L-83.596,8.70932 L-83.596,15.1674 L-80.2563,15.1674 Z "
      fill="#4e4e4e" fill-opacity="1.00" />
    <path
      d="M-60.0717,14.9511 L-60.0717,8.49305 L-63.4114,8.49305 L-63.4114,14.9511 L-60.0717,14.9511 Z "
      fill="#4e4e4e" fill-opacity="1.00" />
    <path
      d="M-84.4053,-73.9311 L-84.4053,-82.5234 L-87.745,-82.5234 L-87.745,-73.9311 L-84.4053,-73.9311 Z "
      fill="#4e4e4e" fill-opacity="1.00" />
    <path
      d="M-58.6545,-73.9311 L-58.6545,-82.5234 L-61.9942,-82.5234 L-61.9942,-73.9311 L-58.6545,-73.9311 Z "
      fill="#4e4e4e" fill-opacity="1.00" />
    <path
      d="M-50.8156,-73.9311 L-50.8156,-82.5234 L-54.1553,-82.5234 L-54.1553,-73.9311 L-50.8156,-73.9311 Z "
      fill="#4e4e4e" fill-opacity="1.00" />
    <path
      d="M-78.7378,-60.4559 L-78.7378,-69.0482 L-82.0775,-69.0482 L-82.0775,-60.4559 L-78.7378,-60.4559 Z "
      fill="#4e4e4e" fill-opacity="1.00" />
    <path
      d="M-53.8459,-60.4559 L-53.8459,-69.0482 L-57.1856,-69.0482 L-57.1856,-60.4559 L-53.8459,-60.4559 Z "
      fill="#4e4e4e" fill-opacity="1.00" />
    <path
      d="M-68.0985,-53.502 L-68.0985,-62.0944 L-71.4382,-62.0944 L-71.4382,-53.502 L-68.0985,-53.502 Z "
      fill="#4e4e4e" fill-opacity="1.00" />
    <path
      d="M-76.4573,-53.502 L-76.4573,-62.0944 L-79.797,-62.0944 L-79.797,-53.502 L-76.4573,-53.502 Z "
      fill="#4e4e4e" fill-opacity="1.00" />
    <path
      d="M-74.7874,-69.0482 L-74.7874,-75.5063 L-78.1271,-75.5063 L-78.1271,-69.0482 L-74.7874,-69.0482 Z "
      fill="#4e4e4e" fill-opacity="1.00" />
    <path
      d="M-87.745,-67.4731 L-87.745,-73.9311 L-91.0847,-73.9311 L-91.0847,-67.4731 L-87.745,-67.4731 Z "
      fill="#4e4e4e" fill-opacity="1.00" />
    <path
      d="M-60.4335,-69.0482 L-60.4335,-75.5063 L-63.7732,-75.5063 L-63.7732,-69.0482 L-60.4335,-69.0482 Z "
      fill="#4e4e4e" fill-opacity="1.00" />
    <path
      d="M-29.2961,47.8335 L8.26175,47.8335 L8.26175,42.9903 L-29.2961,42.9903 L-29.2961,47.8335 Z "
      fill="#c7c7c7" fill-opacity="1.00" />
    <path
      d="M-73.921,47.8335 L-36.3632,47.8335 L-36.3632,42.9903 L-73.921,42.9903 L-73.921,47.8335 Z "
      fill="#c7c7c7" fill-opacity="1.00" />
    <path
      d="M-28.1613,-82.741 L-28.1613,-89.199 L-31.501,-89.199 L-31.501,-82.741 L-28.1613,-82.741 Z "
      fill="#4e4e4e" fill-opacity="1.00" />
    <path
      d="M337.531,-73.9165 C344.733,-78.0264 343.729,-91.2589 343.729,-97.8905 C343.729,-100.209 342.332,-111.726 341.083,-115.368 C339.068,-121.244 338.818,-126.436 333.614,-127.388 C327.433,-128.519 323.462,-116.145 321.834,-112.097 C320.367,-108.45 319.119,-102.429 320.69,-95.2561 C323.075,-84.3649 332.272,-70.9149 337.531,-73.9165 Z "
      fill="#b18e68" fill-opacity="1.00" />
    <g>
      <path
        d="M313.227,-41.1499 C313.227,-46.5083 311.577,-50.8522 309.542,-50.8522 C307.507,-50.8522 305.857,-46.5083 305.857,-41.1499 C305.857,-35.7915 307.507,-31.4477 309.542,-31.4477 C311.577,-31.4477 313.227,-35.7915 313.227,-41.1499 Z "
        fill="#4f4f4f" fill-opacity="1.00" />
      <path
        d="M291.018,-49.3575 C293.361,-51.8804 296.655,-53.3827 300.236,-53.2179 C306.94,-52.9093 312.639,-42.6645 312.311,-35.5286 C312.298,-35.2386 312.274,-34.948 312.24,-34.6574 C312.793,-36.3534 313.137,-38.1965 313.226,-40.1314 C313.634,-49.002 308.53,-56.4432 301.826,-56.7518 C297.382,-56.9563 293.35,-53.9749 291.018,-49.3575 L291.018,-49.3575 Z "
        fill="#4f4f4f" fill-opacity="1.00" />
    </g>
    <path
      d="M266.231,-55.0132 C276.745,-48.8804 281.059,-49.4669 281.737,-43.5655 C282.064,-44.1346 282.293,-44.7507 282.426,-45.4138 C283.733,-51.9385 278.695,-52.5176 266.231,-55.0132 Z "
      fill="#8c6b46" fill-opacity="1.00" />
    <path
      d="M285.109,-86.2559 C293.105,-77.0793 300.443,-72.8906 299.195,-67.083 C299.687,-67.5176 300.101,-68.0277 300.439,-68.6134 C303.767,-74.3761 296.117,-79.9004 285.109,-86.2559 Z "
      fill="#8c6b46" fill-opacity="1.00" />
    <path d="M275.648,2.52615 L301.657,-1.11962 " fill="none" stroke-width="1.86" stroke="#977450"
      stroke-linecap="round" stroke-linejoin="round" />
    <path
      d="M105.436,93.6612 L105.436,93.6613 C95.7394,117.693 61.4014,134.668 21.1439,133.323 C-25.8897,131.753 -63.1928,105.771 -62.1748,75.2914 C-61.6219,58.7366 -56.4589,47.4269 -36.8015,41.6206 C-34.0002,40.7931 -27.9851,40.7677 -24.6339,42.5498 C-21.8789,44.0147 -21.8505,46.8086 -23.9519,47.8644 C-38.096,54.9711 -43.1101,60.7426 -43.2666,72.3053 C-43.4538,86.1306 -31.0569,98.4861 -12.0614,105.919 C-9.78637,104.19 -6.99465,102.583 -3.81939,101.205 L-3.81939,101.205 C-4.00934,100.824 -4.19661,100.44 -4.38116,100.053 C-4.97221,99.6767 -5.53839,99.2735 -6.07706,98.845 C-8.10787,97.4807 -9.69054,95.6281 -10.7176,93.2696 L-10.7176,93.2696 C-11.4375,91.8717 -11.951,90.3631 -12.2232,88.7638 C-12.7633,85.5913 -12.2895,82.4414 -11.0061,79.5515 C-12.3003,72.7795 -12.8894,65.5934 -12.6604,58.1642 C-12.5488,54.54 -12.2483,50.942 -11.7731,47.3973 C-12.4644,47.111 -13.1002,46.7873 -13.6714,46.4304 L-16.2649,46.7789 C-17.7001,46.9693 -18.2234,45.9216 -17.2037,44.8994 L-17.156,44.8512 L-19.088,44.9156 C-20.5105,44.9611 -20.8045,44.0394 -19.6154,43.2623 L-18.631,42.6122 L-19.6062,42.3004 C-21.0759,41.8278 -21.1365,40.4894 -19.7151,39.8995 L-18.0612,39.2016 L-19.1149,38.6818 C-20.3904,38.0505 -20.2146,37.0992 -18.7995,36.9754 L-15.8688,36.7049 L-12.8772,35.1589 C-11.8386,33.9071 -10.5459,32.6896 -9.04251,31.5969 C-8.77981,31.406 -8.51549,31.2223 -8.25007,31.0461 L-8.25007,31.0461 C-4.95427,20.0837 0.0185473,10.179 6.16053,2.31955 C-7.16398,5.75941 -25.4906,10.7215 -29.2157,10.4838 C-32.5006,10.2741 -37.8063,8.75769 -41.2619,4.91464 C-44.0057,1.86314 -52.338,-10.4158 -49.5906,-11.624 C-45.8493,-13.2692 -40.1825,-20.7818 -42.9786,-26.1932 C-43.6151,-26.3765 -44.2831,-26.5929 -44.9844,-26.8442 C-56.9809,-31.1421 -46.1267,-61.2161 -35.7732,-74.328 C-30.8648,-80.5442 -25.0225,-88.6771 -17.4586,-95.4788 C-19.3395,-96.5813 -20.9854,-98.0195 -22.4212,-98.9979 C-27.6917,-102.59 -30.2796,-113.043 -28.584,-115.262 C-23.895,-121.397 -17.5144,-118.975 -12.9659,-117.169 C-9.25409,-115.695 -4.17376,-109.579 -1.27329,-105.874 C0.0312586,-106.456 1.30522,-107 2.54954,-107.507 C2.89919,-111.155 3.75587,-114.235 4.68384,-116.543 C6.68465,-121.517 11.5656,-136.724 19.1611,-135.335 C25.5568,-134.165 25.8643,-127.783 28.3406,-120.562 C28.8888,-118.964 29.4604,-116.131 29.9686,-113.019 L29.9686,-113.019 C41.0862,-111.924 47.9537,-105.306 53.2954,-96.1092 L53.2954,-96.1092 C61.7557,-89.2383 68.7178,-79.4581 72.7397,-67.6534 C77.9234,-52.4385 77.1853,-36.9051 71.8143,-24.4388 C84.8341,-20.3515 95.4207,-4.75262 102.81,9.71437 C110.293,24.3658 120.111,67.403 110.544,85.2382 C108.455,89.131 106.813,91.8074 105.436,93.6612 Z "
      fill="#000000" fill-opacity="1.00" stroke-width="13.89" stroke="#000000"
      stroke-linecap="round" stroke-linejoin="round" />
    <g>
      <path
        d="M0.332035,-103.088 C-10.2456,-86.3304 -17.4781,-94.8598 -22.3202,-98.1596 C-27.5907,-101.751 -30.1786,-112.205 -28.483,-114.424 C-23.7941,-120.558 -17.4134,-118.137 -12.865,-116.331 C-8.37477,-114.548 -1.88197,-105.971 0.332035,-103.088 Z "
        fill="#d0b391" fill-opacity="1.00" />
      <path
        d="M6.26148,3.15784 C-4.67192,17.1486 -11.9005,37.6199 -12.5595,59.0025 C-13.7614,97.999 7.5789,130.3 35.1054,131.148 C62.6319,131.996 85.9208,101.071 87.1228,62.0748 C87.9993,33.6331 76.7593,6.07203 59.9315,-7.09305 C74.91,-19.7959 80.7248,-43.6738 72.8406,-66.8151 C63.0315,-95.6065 35.7317,-112.355 11.8648,-104.223 C-3.32625,-99.0479 -13.4651,-85.0404 -16.2995,-68.1165 C-16.4771,-68.1427 -16.633,-68.1292 -16.7651,-68.0727 L-44.5156,-27.4274 C-38.5034,-22.0969 -45.2392,-12.6548 -49.4896,-10.7857 C-52.2371,-9.57753 -43.9048,2.70143 -41.1609,5.75294 C-37.7053,9.59598 -32.3997,11.1124 -29.1148,11.3221 C-25.3896,11.5598 -7.06303,6.59771 6.26148,3.15784 Z "
        fill="#d0b391" fill-opacity="1.00" />
      <path
        d="M11.4608,102.032 C23.59,99.9674 32.037,90.1535 30.3277,80.1122 C28.6184,70.0709 17.4,63.6046 5.27086,65.6693 C-6.85834,67.734 -13.3923,80.4175 -11.683,90.4588 C-9.97366,100.5 -0.668352,104.097 11.4608,102.032 Z "
        fill="#b18e68" fill-opacity="1.00" />
      <path
        d="M12.9346,104.045 C25.0638,101.98 33.5107,92.1664 31.8014,82.125 C30.0921,72.0837 18.8738,65.6174 6.74459,67.6821 C-5.3846,69.7469 -13.8316,79.5608 -12.1223,89.6021 C-10.4129,99.6434 0.805384,106.11 12.9346,104.045 Z "
        fill="#d0b391" fill-opacity="1.00" />
      <path
        d="M11.4024,124.333 C26.1145,120.8 36.6815,112.275 35.0044,105.292 C33.3274,98.3087 20.0413,95.512 5.32926,99.0452 C-9.38282,102.578 -19.9498,111.104 -18.2727,118.087 C-16.5957,125.07 -3.30964,127.867 11.4024,124.333 Z "
        fill="#d0b391" fill-opacity="1.00" />
      <path
        d="M-12.7762,35.9972 L-15.7679,37.5431 L-18.6985,37.8137 C-20.1136,37.9375 -20.2895,38.8888 -19.014,39.5201 L-17.9603,40.0399 L-17.9603,40.0399 L-19.6142,40.7378 C-21.0356,41.3277 -20.9749,42.6661 -19.5053,43.1387 L-18.53,43.4505 L-19.5144,44.1006 C-20.7035,44.8777 -20.4095,45.7993 -18.9871,45.7539 L-17.0551,45.6894 L-17.0551,45.6894 L-17.1027,45.7377 C-18.1224,46.7599 -17.5991,47.8076 -16.164,47.6172 L-13.5705,47.2687 C-10.7535,49.0285 -6.36372,49.9824 -1.51839,49.6283 C6.5905,49.0356 12.9045,45.0041 12.5844,40.6235 C12.3797,37.8231 9.51336,35.5579 5.35352,34.443 L5.35352,34.443 C5.68837,32.9604 5.52748,31.6181 4.7846,30.596 C2.64729,27.6554 -3.49812,28.4788 -8.94155,32.4352 C-10.445,33.5279 -11.7376,34.7453 -12.7762,35.9972 L-12.7762,35.9972 Z "
        fill="#d0b391" fill-opacity="1.00" />
      <path
        d="M29.7539,-85.1669 C38.0518,-85.0374 63.6507,-77.3442 53.616,-94.8898 C44.2067,-111.342 30.1072,-119.793 -3.92406,-103.774 C-18.5371,-96.8959 -28.1898,-82.9657 -35.6723,-73.4897 C-46.0258,-60.3778 -56.8799,-30.3038 -44.8834,-26.0059 C-25.5638,-19.0843 -31.4863,-38.6265 -26.5112,-45.6624 C-17.5983,-58.2671 -0.634231,-73.2211 10.7865,-78.2276 C19.7627,-83.6189 21.456,-85.2964 29.7539,-85.1669 Z "
        fill="#b18e68" fill-opacity="1.00" />
      <path
        d="M24.0768,-68.7803 C32.9276,-73.8314 31.6943,-90.094 31.6943,-98.2442 C31.6943,-101.094 29.9766,-115.248 28.4416,-119.724 C25.9652,-126.945 25.6578,-133.327 19.2621,-134.497 C11.6665,-135.886 6.78561,-120.679 4.78479,-115.704 C2.98195,-111.222 1.44819,-103.822 3.37875,-95.0066 C6.30997,-81.6213 17.6128,-65.0913 24.0768,-68.7803 Z "
        fill="#d0b391" fill-opacity="1.00" />
      <path
        d="M24.6147,-71.2167 C31.8163,-75.3267 30.8129,-88.5591 30.8129,-95.1907 C30.8129,-97.5092 29.4152,-109.026 28.1662,-112.668 C26.1513,-118.544 25.9011,-123.736 20.6971,-124.688 C14.5168,-125.819 10.5454,-113.445 8.91735,-109.398 C7.45043,-105.75 6.20245,-99.7295 7.77329,-92.5564 C10.1583,-81.6651 19.3551,-68.2151 24.6147,-71.2167 Z "
        fill="#b18e68" fill-opacity="1.00" />
      <path
        d="M36.4003,98.4907 C33.8064,103.013 37.0654,108.534 42.1202,108.6 L76.7057,108.6 C81.8936,108.6 85.1526,103.013 82.5587,98.5572 L65.2659,68.6274 C62.7385,64.1712 56.287,64.1712 53.6931,68.6274 L36.4003,98.4907 Z "
        fill="#d0b391" fill-opacity="1.00" />
      <path
        d="M43.5702,80.2444 C34.801,91.4459 60.8308,104.369 74.9784,102.816 C89.1261,101.262 84.633,105.516 92.7485,100.864 C100.864,96.213 101.077,103.912 110.645,86.0765 C120.212,68.2412 110.394,25.2041 102.911,10.5527 C95.4275,-4.09878 84.6646,-19.9112 71.4161,-23.7512 C58.1676,-27.5912 27.4862,7.27225 40.1611,16.8381 C57.9747,30.2822 54.4516,37.5415 55.129,46.0469 C55.8064,54.5523 54.517,58.0506 54.3066,62.177 C54.0962,66.3035 50.96,70.8052 43.5702,80.2444 Z "
        fill="#b18e68" fill-opacity="1.00" />
      <path
        d="M84.3193,41.2854 C82.2806,42.6274 80.0829,43.8908 77.7424,45.0668 L77.7424,45.0667 C90.9354,52.5029 99.0492,62.7421 98.8975,73.9467 C98.5987,96.0167 66.3443,113.475 26.8553,112.94 C-12.6337,112.405 -44.4037,94.0808 -44.1049,72.0108 C-43.9484,60.4481 -38.9343,54.6765 -24.7902,47.5699 C-22.6888,46.514 -22.7172,43.7202 -25.4722,42.2552 C-28.8234,40.4732 -34.8385,40.4986 -37.6398,41.326 C-57.2972,47.1324 -62.4602,58.442 -63.0131,74.9968 C-64.0311,105.476 -26.728,131.458 20.3056,133.029 C67.3393,134.6 106.293,111.165 107.311,80.6856 C107.813,65.6657 99.0082,51.7379 84.3193,41.2854 L84.3193,41.2854 Z "
        fill="#b18e68" fill-opacity="1.00" />
      <g>
        <path
          d="M0.309983,-38.4502 C0.309983,-43.8086 -1.33971,-48.1524 -3.37471,-48.1524 C-5.4097,-48.1524 -7.0594,-43.8086 -7.0594,-38.4502 C-7.0594,-33.0918 -5.4097,-28.7479 -3.37471,-28.7479 C-1.33971,-28.7479 0.309983,-33.0918 0.309983,-38.4502 Z "
          fill="#4f4f4f" fill-opacity="1.00" />
        <path
          d="M-21.8987,-46.6577 C-19.556,-49.1806 -16.2613,-50.6829 -12.6804,-50.5181 C-5.97637,-50.2096 -0.27723,-39.9647 -0.60565,-32.8288 C-0.618995,-32.5388 -0.642866,-32.2483 -0.676836,-31.9576 C-0.123848,-33.6537 0.220102,-35.4968 0.309154,-37.4317 C0.717412,-46.3023 -4.38634,-53.7434 -11.0904,-54.052 C-15.5347,-54.2565 -19.5666,-51.2752 -21.8987,-46.6577 L-21.8987,-46.6577 Z "
          fill="#4f4f4f" fill-opacity="1.00" />
      </g>
      <path
        d="M80.4933,12.0474 C74.2163,21.6362 65.3798,27.1836 59.6511,25.6127 C60.0575,26.1278 60.5436,26.5706 61.1094,26.941 C66.6768,30.5855 76.8643,24.8017 83.8261,14.1668 C90.845,3.4447 92.0014,-8.00189 86.434,-11.6464 C85.8908,-12.002 85.2739,-12.3436 84.6333,-12.4516 C88.3647,-7.82973 86.7418,2.50209 80.4933,12.0474 Z "
        fill="#8c6b46" fill-opacity="1.00" />
      <path
        d="M-46.6851,-52.3135 C-36.1718,-46.1807 -31.8572,-46.7671 -31.1793,-40.8657 C-30.8529,-41.4349 -30.6232,-42.051 -30.4905,-42.714 C-29.184,-49.2388 -34.2216,-49.8178 -46.6851,-52.3135 Z "
        fill="#8c6b46" fill-opacity="1.00" />
      <path
        d="M-27.8075,-83.5561 C-19.8118,-74.3796 -12.4739,-70.1909 -13.7216,-64.3832 C-13.2301,-64.8178 -12.8152,-65.3279 -12.4771,-65.9136 C-9.14998,-71.6763 -16.7995,-77.2007 -27.8075,-83.5561 Z "
        fill="#8c6b46" fill-opacity="1.00" />
      <path
        d="M90.0746,48.358 C79.167,51.8753 68.8068,50.6402 65.3365,45.8192 C65.3291,46.4753 65.4292,47.1251 65.6367,47.7687 C67.6789,54.1018 79.2387,56.0017 91.3362,52.1007 C103.533,48.1677 111.624,39.9883 109.581,33.6551 C109.382,33.0373 109.117,32.3839 108.686,31.8975 C108.686,37.8376 100.933,44.8567 90.0746,48.358 Z "
        fill="#8c6b46" fill-opacity="1.00" />
      <path
        d="M88.4138,84.1263 C76.9531,84.1263 67.472,79.7713 65.6487,74.1179 C65.4403,74.74 65.3361,75.3892 65.3361,76.0655 C65.3361,82.7197 75.7549,88.0756 88.4659,88.0756 C101.281,88.0756 111.492,82.7738 111.492,76.1196 C111.492,75.4704 111.439,74.7671 111.179,74.172 C109.356,79.8254 99.8224,84.1263 88.4138,84.1263 Z "
        fill="#8c6b46" fill-opacity="1.00" />
    </g>
    <g>
      <path
        d="M-242.053,804.67 C-252.631,821.428 -259.864,812.898 -264.706,809.599 C-269.976,806.007 -272.564,795.553 -270.868,793.335 C-266.18,787.2 -259.799,789.621 -255.25,791.427 C-250.76,793.211 -244.267,801.787 -242.053,804.67 Z "
        fill="#d0b391" fill-opacity="1.00" />
      <path
        d="M-236.124,910.916 C-247.057,924.907 -254.286,945.378 -254.945,966.761 C-256.147,1005.76 -234.807,1038.06 -207.28,1038.91 C-179.754,1039.75 -156.465,1008.83 -155.263,969.833 C-154.386,941.391 -165.626,913.83 -182.454,900.665 C-167.475,887.962 -161.661,864.084 -169.545,840.943 C-179.354,812.152 -206.654,795.403 -230.521,803.535 C-245.712,808.71 -255.851,822.718 -258.685,839.642 C-258.863,839.616 -259.019,839.629 -259.151,839.686 L-286.901,880.331 C-280.889,885.661 -287.625,895.103 -291.875,896.973 C-294.623,898.181 -286.29,910.46 -283.546,913.511 C-280.091,917.354 -274.785,918.871 -271.5,919.08 C-267.775,919.318 -249.449,914.356 -236.124,910.916 Z "
        fill="#d0b391" fill-opacity="1.00" />
      <path
        d="M-230.925,1009.79 C-218.795,1007.73 -210.348,997.912 -212.058,987.87 C-213.767,977.829 -224.985,971.363 -237.115,973.428 C-249.244,975.492 -255.778,988.176 -254.068,998.217 C-252.359,1008.26 -243.054,1011.86 -230.925,1009.79 Z "
        fill="#b18e68" fill-opacity="1.00" />
      <path
        d="M-229.451,1011.8 C-217.322,1009.74 -208.875,999.925 -210.584,989.883 C-212.293,979.842 -223.512,973.376 -235.641,975.44 C-247.77,977.505 -256.217,987.319 -254.508,997.36 C-252.798,1007.4 -241.58,1013.87 -229.451,1011.8 Z "
        fill="#d0b391" fill-opacity="1.00" />
      <path
        d="M-230.983,1032.09 C-216.271,1028.56 -205.704,1020.03 -207.381,1013.05 C-209.058,1006.07 -222.344,1003.27 -237.056,1006.8 C-251.768,1010.34 -262.335,1018.86 -260.658,1025.85 C-258.981,1032.83 -245.695,1035.62 -230.983,1032.09 Z "
        fill="#d0b391" fill-opacity="1.00" />
      <path
        d="M-255.162,943.755 L-258.153,945.301 L-261.084,945.572 C-262.499,945.696 -262.675,946.647 -261.399,947.278 L-260.346,947.798 L-260.346,947.798 L-262,948.496 C-263.421,949.086 -263.36,950.424 -261.891,950.897 L-260.915,951.209 L-261.9,951.859 C-263.089,952.636 -262.795,953.558 -261.373,953.512 L-259.441,953.448 L-259.441,953.448 L-259.488,953.496 C-260.508,954.518 -259.985,955.566 -258.549,955.375 L-255.956,955.027 C-253.139,956.787 -248.749,957.741 -243.904,957.387 C-235.795,956.794 -229.481,952.762 -229.801,948.382 C-230.006,945.581 -232.872,943.316 -237.032,942.201 L-237.032,942.201 C-236.697,940.719 -236.858,939.376 -237.601,938.354 C-239.738,935.414 -245.884,936.237 -251.327,940.193 C-252.83,941.286 -254.123,942.504 -255.162,943.755 L-255.162,943.755 Z "
        fill="#d0b391" fill-opacity="1.00" />
      <path
        d="M-212.632,822.591 C-204.334,822.721 -178.735,830.414 -188.769,812.868 C-198.179,796.416 -212.278,787.965 -246.31,803.984 C-260.923,810.862 -270.575,824.793 -278.058,834.269 C-288.411,847.381 -299.265,877.454 -287.269,881.752 C-267.949,888.674 -273.872,869.132 -268.897,862.096 C-259.984,849.491 -243.02,834.537 -231.599,829.531 C-222.623,824.139 -220.929,822.462 -212.632,822.591 Z "
        fill="#b18e68" fill-opacity="1.00" />
      <path
        d="M-218.309,838.978 C-209.458,833.927 -210.691,817.664 -210.691,809.514 C-210.691,806.665 -212.409,792.51 -213.944,788.034 C-216.42,780.813 -216.728,774.431 -223.123,773.261 C-230.719,771.872 -235.6,787.079 -237.601,792.054 C-239.404,796.536 -240.937,803.936 -239.007,812.752 C-236.076,826.137 -224.773,842.667 -218.309,838.978 Z "
        fill="#d0b391" fill-opacity="1.00" />
      <path
        d="M-217.771,836.542 C-210.569,832.432 -211.573,819.199 -211.573,812.568 C-211.573,810.249 -212.97,798.732 -214.219,795.09 C-216.234,789.214 -216.484,784.022 -221.688,783.07 C-227.869,781.939 -231.84,794.313 -233.468,798.361 C-234.935,802.008 -236.183,808.029 -234.612,815.202 C-232.227,826.093 -223.03,839.543 -217.771,836.542 Z "
        fill="#b18e68" fill-opacity="1.00" />
      <path
        d="M-205.985,1006.25 C-208.579,1010.77 -205.32,1016.29 -200.265,1016.36 L-165.68,1016.36 C-160.492,1016.36 -157.233,1010.77 -159.827,1006.32 L-177.12,976.386 C-179.647,971.929 -186.098,971.929 -188.692,976.386 L-205.985,1006.25 Z "
        fill="#d0b391" fill-opacity="1.00" />
      <path
        d="M-198.815,988.003 C-207.585,999.204 -181.555,1012.13 -167.407,1010.57 C-153.259,1009.02 -157.752,1013.27 -149.637,1008.62 C-141.522,1003.97 -141.309,1011.67 -131.741,993.835 C-122.173,976 -131.992,932.962 -139.475,918.311 C-146.958,903.659 -157.721,887.847 -170.969,884.007 C-184.218,880.167 -214.899,915.031 -202.224,924.596 C-184.411,938.04 -187.934,945.3 -187.256,953.805 C-186.579,962.311 -187.869,965.809 -188.079,969.935 C-188.289,974.062 -191.426,978.563 -198.815,988.003 Z "
        fill="#b18e68" fill-opacity="1.00" />
      <path
        d="M-158.066,949.044 C-160.105,950.386 -162.303,951.649 -164.643,952.825 L-164.643,952.825 C-151.45,960.261 -143.336,970.5 -143.488,981.705 C-143.787,1003.77 -176.041,1021.23 -215.53,1020.7 C-255.019,1020.16 -286.789,1001.84 -286.49,979.769 C-286.334,968.206 -281.32,962.435 -267.176,955.328 C-265.074,954.272 -265.103,951.478 -267.858,950.014 C-271.209,948.231 -277.224,948.257 -280.025,949.084 C-299.683,954.891 -304.846,966.2 -305.399,982.755 C-306.417,1013.23 -269.114,1039.22 -222.08,1040.79 C-175.046,1042.36 -136.093,1018.92 -135.075,988.444 C-134.573,973.424 -143.377,959.496 -158.066,949.044 L-158.066,949.044 Z "
        fill="#b18e68" fill-opacity="1.00" />
      <g>
        <path
          d="M-242.076,869.308 C-242.076,863.95 -243.725,859.606 -245.76,859.606 C-247.795,859.606 -249.445,863.95 -249.445,869.308 C-249.445,874.667 -247.795,879.01 -245.76,879.01 C-243.725,879.01 -242.076,874.667 -242.076,869.308 Z "
          fill="#4f4f4f" fill-opacity="1.00" />
        <path
          d="M-264.284,861.101 C-261.941,858.578 -258.647,857.075 -255.066,857.24 C-248.362,857.549 -242.663,867.794 -242.991,874.929 C-243.004,875.219 -243.028,875.51 -243.062,875.801 C-242.509,874.105 -242.165,872.262 -242.076,870.327 C-241.668,861.456 -246.772,854.015 -253.476,853.706 C-257.92,853.502 -261.952,856.483 -264.284,861.101 L-264.284,861.101 Z "
          fill="#4f4f4f" fill-opacity="1.00" />
      </g>
      <path
        d="M-161.892,919.806 C-168.169,929.395 -177.006,934.942 -182.734,933.371 C-182.328,933.886 -181.842,934.329 -181.276,934.699 C-175.709,938.344 -165.521,932.56 -158.559,921.925 C-151.54,911.203 -150.384,899.756 -155.951,896.112 C-156.495,895.756 -157.112,895.415 -157.752,895.307 C-154.021,899.929 -155.644,910.26 -161.892,919.806 Z "
        fill="#8c6b46" fill-opacity="1.00" />
      <path
        d="M-289.071,855.445 C-278.557,861.578 -274.243,860.991 -273.565,866.893 C-273.238,866.323 -273.009,865.707 -272.876,865.044 C-271.569,858.52 -276.607,857.94 -289.071,855.445 Z "
        fill="#8c6b46" fill-opacity="1.00" />
      <path
        d="M-270.193,824.202 C-262.197,833.379 -254.859,837.567 -256.107,843.375 C-255.616,842.94 -255.201,842.43 -254.863,841.845 C-251.535,836.082 -259.185,830.558 -270.193,824.202 Z "
        fill="#8c6b46" fill-opacity="1.00" />
      <path
        d="M-152.311,956.116 C-163.219,959.634 -173.579,958.398 -177.049,953.577 C-177.056,954.234 -176.956,954.883 -176.749,955.527 C-174.707,961.86 -163.147,963.76 -151.049,959.859 C-138.853,955.926 -130.762,947.747 -132.804,941.413 C-133.003,940.796 -133.269,940.142 -133.699,939.656 C-133.7,945.596 -141.453,952.615 -152.311,956.116 Z "
        fill="#8c6b46" fill-opacity="1.00" />
      <path
        d="M-153.972,991.885 C-165.432,991.885 -174.914,987.53 -176.737,981.876 C-176.945,982.498 -177.049,983.148 -177.049,983.824 C-177.049,990.478 -166.631,995.834 -153.92,995.834 C-141.104,995.834 -130.894,990.532 -130.894,983.878 C-130.894,983.229 -130.946,982.525 -131.207,981.93 C-133.03,987.584 -142.563,991.885 -153.972,991.885 Z "
        fill="#8c6b46" fill-opacity="1.00" />
    </g>
    <g>
      <path
        d="M-354.161,486.323 C-364.739,503.081 -371.971,494.551 -376.813,491.251 C-382.084,487.66 -384.672,477.206 -382.976,474.988 C-378.287,468.853 -371.906,471.274 -367.358,473.08 C-362.868,474.863 -356.375,483.44 -354.161,486.323 Z "
        fill="#d6a184" fill-opacity="1.00" />
      <path
        d="M-348.232,592.569 C-359.165,606.56 -366.394,627.031 -367.053,648.414 C-368.254,687.41 -346.914,719.711 -319.388,720.559 C-291.861,721.408 -268.572,690.482 -267.37,651.486 C-266.494,623.044 -277.734,595.483 -294.562,582.318 C-279.583,569.615 -273.768,545.737 -281.652,522.596 C-291.462,493.805 -318.761,477.056 -342.628,485.188 C-357.819,490.363 -367.958,504.371 -370.793,521.295 C-370.97,521.268 -371.126,521.282 -371.258,521.338 L-399.009,561.984 C-392.996,567.314 -399.732,576.756 -403.983,578.625 C-406.73,579.834 -398.398,592.113 -395.654,595.164 C-392.198,599.007 -386.893,600.524 -383.608,600.733 C-379.883,600.971 -361.556,596.009 -348.232,592.569 Z "
        fill="#d6a184" fill-opacity="1.00" />
      <path
        d="M-343.032,691.443 C-330.903,689.379 -322.456,679.565 -324.165,669.523 C-325.875,659.482 -337.093,653.016 -349.222,655.08 C-361.351,657.145 -367.885,669.829 -366.176,679.87 C-364.467,689.911 -355.161,693.508 -343.032,691.443 Z "
        fill="#b0846c" fill-opacity="1.00" />
      <path
        d="M-341.558,693.456 C-329.429,691.391 -320.982,681.577 -322.692,671.536 C-324.401,661.495 -335.619,655.028 -347.748,657.093 C-359.878,659.158 -368.325,668.972 -366.615,679.013 C-364.906,689.054 -353.688,695.521 -341.558,693.456 Z "
        fill="#d6a184" fill-opacity="1.00" />
      <path
        d="M-343.091,713.744 C-328.379,710.211 -317.812,701.686 -319.489,694.703 C-321.166,687.72 -334.452,684.923 -349.164,688.456 C-363.876,691.989 -374.443,700.515 -372.766,707.498 C-371.089,714.481 -357.803,717.278 -343.091,713.744 Z "
        fill="#d6a184" fill-opacity="1.00" />
      <path
        d="M-367.269,625.408 L-370.261,626.954 L-373.192,627.225 C-374.607,627.349 -374.782,628.3 -373.507,628.931 L-372.453,629.451 L-372.453,629.451 L-374.107,630.149 C-375.529,630.739 -375.468,632.077 -373.998,632.55 L-373.023,632.862 L-374.007,633.512 C-375.197,634.289 -374.903,635.21 -373.48,635.165 L-371.548,635.101 L-371.548,635.101 L-371.596,635.149 C-372.615,636.171 -372.092,637.219 -370.657,637.028 L-368.064,636.68 C-365.247,638.44 -360.857,639.393 -356.011,639.039 C-347.903,638.447 -341.588,634.415 -341.909,630.035 C-342.113,627.234 -344.98,624.969 -349.14,623.854 L-349.14,623.854 C-348.805,622.372 -348.966,621.029 -349.708,620.007 C-351.846,617.066 -357.991,617.89 -363.435,621.846 C-364.938,622.939 -366.231,624.156 -367.269,625.408 L-367.269,625.408 Z "
        fill="#d6a184" fill-opacity="1.00" />
      <path
        d="M-324.739,504.244 C-316.441,504.374 -290.842,512.067 -300.877,494.521 C-310.286,478.069 -324.386,469.618 -358.417,485.637 C-373.03,492.515 -382.683,506.445 -390.165,515.921 C-400.519,529.033 -411.373,559.107 -399.376,563.405 C-380.057,570.327 -385.979,550.785 -381.004,543.749 C-372.091,531.144 -355.127,516.19 -343.707,511.184 C-334.73,505.792 -333.037,504.115 -324.739,504.244 Z "
        fill="#aa767c" fill-opacity="1.00" />
      <path
        d="M-330.416,520.631 C-321.565,515.58 -322.799,499.317 -322.799,491.167 C-322.799,488.317 -324.516,474.163 -326.051,469.687 C-328.528,462.466 -328.835,456.084 -335.231,454.914 C-342.827,453.525 -347.707,468.732 -349.708,473.707 C-351.511,478.189 -353.045,485.589 -351.114,494.404 C-348.183,507.79 -336.88,524.32 -330.416,520.631 Z "
        fill="#d6a184" fill-opacity="1.00" />
      <path
        d="M-329.878,518.194 C-322.677,514.084 -323.68,500.852 -323.68,494.22 C-323.68,491.902 -325.078,480.385 -326.327,476.743 C-328.342,470.867 -328.592,465.675 -333.796,464.723 C-339.976,463.592 -343.948,475.966 -345.576,480.014 C-347.043,483.661 -348.291,489.682 -346.72,496.855 C-344.335,507.746 -335.138,521.196 -329.878,518.194 Z "
        fill="#aa767c" fill-opacity="1.00" />
      <path
        d="M-318.093,687.902 C-320.687,692.424 -317.428,697.945 -312.373,698.011 L-277.787,698.011 C-272.599,698.011 -269.34,692.424 -271.934,687.968 L-289.227,658.038 C-291.755,653.582 -298.206,653.582 -300.8,658.038 L-318.093,687.902 Z "
        fill="#d6a184" fill-opacity="1.00" />
      <path
        d="M-310.923,669.656 C-319.692,680.857 -293.662,693.78 -279.515,692.227 C-265.367,690.673 -269.86,694.927 -261.745,690.276 C-253.629,685.624 -253.416,693.323 -243.849,675.488 C-234.281,657.652 -244.099,614.615 -251.582,599.964 C-259.066,585.312 -269.828,569.5 -283.077,565.66 C-296.325,561.82 -327.007,596.683 -314.332,606.249 C-296.518,619.693 -300.041,626.953 -299.364,635.458 C-298.687,643.963 -299.976,647.462 -300.186,651.588 C-300.397,655.715 -303.533,660.216 -310.923,669.656 Z "
        fill="#aa767c" fill-opacity="1.00" />
      <path
        d="M-270.174,630.697 C-272.212,632.038 -274.41,633.302 -276.751,634.478 L-276.751,634.478 C-263.558,641.914 -255.444,652.153 -255.596,663.358 C-255.894,685.428 -288.149,702.886 -327.638,702.351 C-367.127,701.817 -398.897,683.492 -398.598,661.422 C-398.441,649.859 -393.427,644.088 -379.283,636.981 C-377.182,635.925 -377.21,633.131 -379.965,631.666 C-383.316,629.884 -389.332,629.91 -392.133,630.737 C-411.79,636.543 -416.953,647.853 -417.506,664.408 C-418.524,694.887 -381.221,720.869 -334.187,722.44 C-287.154,724.011 -248.2,700.576 -247.182,670.097 C-246.68,655.077 -255.485,641.149 -270.174,630.697 L-270.174,630.697 Z "
        fill="#aa767c" fill-opacity="1.00" />
      <g>
        <path
          d="M-354.183,550.961 C-354.183,545.603 -355.833,541.259 -357.868,541.259 C-359.903,541.259 -361.552,545.603 -361.552,550.961 C-361.552,556.319 -359.903,560.663 -357.868,560.663 C-355.833,560.663 -354.183,556.319 -354.183,550.961 Z "
          fill="#4f4f4f" fill-opacity="1.00" />
        <path
          d="M-376.392,542.753 C-374.049,540.23 -370.754,538.728 -367.173,538.893 C-360.469,539.202 -354.77,549.446 -355.099,556.582 C-355.112,556.872 -355.136,557.163 -355.17,557.453 C-354.617,555.757 -354.273,553.914 -354.184,551.979 C-353.776,543.109 -358.879,535.668 -365.583,535.359 C-370.028,535.155 -374.06,538.136 -376.392,542.753 L-376.392,542.753 Z "
          fill="#4f4f4f" fill-opacity="1.00" />
      </g>
      <path
        d="M-274,601.458 C-280.277,611.047 -289.113,616.595 -294.842,615.024 C-294.436,615.539 -293.949,615.982 -293.384,616.352 C-287.816,619.997 -277.629,614.213 -270.667,603.578 C-263.648,592.856 -262.492,581.409 -268.059,577.765 C-268.602,577.409 -269.219,577.067 -269.86,576.959 C-266.128,581.581 -267.751,591.913 -274,601.458 Z "
        fill="#63474d" fill-opacity="1.00" />
      <path
        d="M-401.178,537.098 C-390.665,543.23 -386.35,542.644 -385.672,548.545 C-385.346,547.976 -385.116,547.36 -384.984,546.697 C-383.677,540.172 -388.715,539.593 -401.178,537.098 Z "
        fill="#63474d" fill-opacity="1.00" />
      <path
        d="M-382.301,505.855 C-374.305,515.031 -366.967,519.22 -368.215,525.028 C-367.723,524.593 -367.308,524.083 -366.97,523.497 C-363.643,517.735 -371.293,512.21 -382.301,505.855 Z "
        fill="#63474d" fill-opacity="1.00" />
      <path
        d="M-264.418,637.769 C-275.326,641.286 -285.686,640.051 -289.157,635.23 C-289.164,635.886 -289.064,636.536 -288.856,637.18 C-286.814,643.513 -275.254,645.413 -263.157,641.512 C-250.96,637.579 -242.87,629.399 -244.912,623.066 C-245.111,622.448 -245.376,621.795 -245.807,621.309 C-245.807,627.249 -253.56,634.268 -264.418,637.769 Z "
        fill="#63474d" fill-opacity="1.00" />
      <path
        d="M-266.079,673.537 C-277.54,673.537 -287.021,669.182 -288.844,663.529 C-289.053,664.151 -289.157,664.8 -289.157,665.477 C-289.157,672.131 -278.738,677.487 -266.027,677.487 C-253.212,677.487 -243.002,672.185 -243.002,665.531 C-243.002,664.881 -243.054,664.178 -243.314,663.583 C-245.137,669.236 -254.671,673.537 -266.079,673.537 Z "
        fill="#63474d" fill-opacity="1.00" />
    </g>
    <g>
      <path
        d="M91.2539,479.688 C80.6763,496.446 73.4438,487.917 68.6017,484.617 C63.3312,481.026 60.7433,470.572 62.4389,468.353 C67.1278,462.218 73.5085,464.64 78.0569,466.446 C82.5471,468.229 89.0399,476.805 91.2539,479.688 Z "
        fill="#d8e2dc" fill-opacity="1.00" />
      <path
        d="M97.1834,585.935 C86.25,599.925 79.0214,620.397 78.3624,641.779 C77.1605,680.776 98.5008,713.077 126.027,713.925 C153.554,714.773 176.843,683.848 178.045,644.852 C178.921,616.41 167.681,588.849 150.853,575.684 C165.832,562.981 171.647,539.103 163.763,515.962 C153.953,487.17 126.654,470.422 102.787,478.553 C87.5956,483.729 77.4568,497.736 74.6224,514.66 C74.4448,514.634 74.2888,514.648 74.1567,514.704 L46.4062,555.349 C52.4185,560.68 45.6827,570.122 41.4323,571.991 C38.6848,573.199 47.0171,585.478 49.761,588.53 C53.2165,592.373 58.5222,593.889 61.8071,594.099 C65.5323,594.337 83.8589,589.375 97.1834,585.935 Z "
        fill="#d8e2dc" fill-opacity="1.00" />
      <path
        d="M102.383,684.809 C114.512,682.744 122.959,672.93 121.25,662.889 C119.54,652.848 108.322,646.381 96.1927,648.446 C84.0635,650.511 77.5296,663.194 79.2389,673.236 C80.9482,683.277 90.2535,686.874 102.383,684.809 Z "
        fill="#9db0a5" fill-opacity="1.00" />
      <path
        d="M103.856,686.822 C115.986,684.757 124.433,674.943 122.723,664.902 C121.014,654.861 109.796,648.394 97.6665,650.459 C85.5373,652.524 77.0903,662.338 78.7996,672.379 C80.5089,682.42 91.7273,688.887 103.856,686.822 Z "
        fill="#d8e2dc" fill-opacity="1.00" />
      <path
        d="M102.324,707.11 C117.036,703.577 127.603,695.052 125.926,688.069 C124.249,681.085 110.963,678.289 96.2511,681.822 C81.5391,685.355 70.9721,693.88 72.6492,700.864 C74.3262,707.847 87.6122,710.643 102.324,707.11 Z "
        fill="#d8e2dc" fill-opacity="1.00" />
      <path
        d="M78.1457,618.774 L75.154,620.32 L72.2234,620.591 C70.8083,620.714 70.6324,621.666 71.9079,622.297 L72.9616,622.817 L72.9616,622.817 L71.3077,623.515 C69.8863,624.105 69.947,625.443 71.4166,625.916 L72.3919,626.227 L71.4075,626.877 C70.2183,627.655 70.5123,628.576 71.9348,628.531 L73.8668,628.466 L73.8668,628.466 L73.8192,628.515 C72.7994,629.537 73.3228,630.584 74.7579,630.394 L77.3514,630.046 C80.1684,631.805 84.5582,632.759 89.4035,632.405 C97.5124,631.812 103.826,627.781 103.506,623.4 C103.302,620.6 100.435,618.335 96.2754,617.22 L96.2754,617.22 C96.6103,615.737 96.4494,614.395 95.7065,613.373 C93.5692,610.432 87.4238,611.256 81.9803,615.212 C80.4769,616.305 79.1842,617.522 78.1457,618.774 L78.1457,618.774 Z "
        fill="#d8e2dc" fill-opacity="1.00" />
      <path
        d="M120.676,497.61 C128.974,497.739 154.573,505.433 144.538,487.887 C135.129,471.435 121.029,462.984 86.9978,479.002 C72.3848,485.881 62.732,499.811 55.2496,509.287 C44.8961,522.399 34.042,552.473 46.0384,556.771 C65.358,563.693 59.4356,544.15 64.4107,537.114 C73.3236,524.51 90.2876,509.556 101.708,504.549 C110.685,499.158 112.378,497.48 120.676,497.61 Z "
        fill="#ffcad4" fill-opacity="1.00" />
      <path
        d="M114.999,513.997 C123.849,508.945 122.616,492.683 122.616,484.533 C122.616,481.683 120.899,467.529 119.363,463.053 C116.887,455.832 116.58,449.45 110.184,448.28 C102.588,446.891 97.7075,462.098 95.7067,467.072 C93.9038,471.555 92.3701,478.954 94.3006,487.77 C97.2319,501.155 108.535,517.686 114.999,513.997 Z "
        fill="#d8e2dc" fill-opacity="1.00" />
      <path
        d="M115.537,511.56 C122.738,507.45 121.735,494.218 121.735,487.586 C121.735,485.268 120.337,473.751 119.088,470.109 C117.073,464.233 116.823,459.04 111.619,458.088 C105.439,456.958 101.467,469.332 99.8392,473.379 C98.3723,477.026 97.1243,483.047 98.6952,490.22 C101.08,501.112 110.277,514.562 115.537,511.56 Z "
        fill="#ffcad4" fill-opacity="1.00" />
      <path
        d="M127.322,681.267 C124.728,685.79 127.987,691.311 133.042,691.377 L167.628,691.377 C172.815,691.377 176.074,685.79 173.481,681.334 L156.188,651.404 C153.66,646.948 147.209,646.948 144.615,651.404 L127.322,681.267 Z "
        fill="#d8e2dc" fill-opacity="1.00" />
      <path
        d="M134.492,663.021 C125.723,674.223 151.753,687.146 165.9,685.593 C180.048,684.039 175.555,688.293 183.67,683.641 C191.786,678.99 191.999,686.689 201.566,668.853 C211.134,651.018 201.316,607.981 193.832,593.33 C186.349,578.678 175.586,562.866 162.338,559.026 C149.089,555.186 118.408,590.049 131.083,599.615 C148.897,613.059 145.373,620.318 146.051,628.824 C146.728,637.329 145.439,640.827 145.228,644.954 C145.018,649.08 141.882,653.582 134.492,663.021 Z "
        fill="#ffcad4" fill-opacity="1.00" />
      <path
        d="M175.241,624.062 C173.202,625.404 171.005,626.668 168.664,627.844 L168.664,627.844 C181.857,635.28 189.971,645.519 189.819,656.723 C189.521,678.794 157.266,696.251 117.777,695.717 C78.2882,695.182 46.5182,676.858 46.817,654.788 C46.9735,643.225 51.9876,637.453 66.1317,630.347 C68.2331,629.291 68.2046,626.497 65.4497,625.032 C62.0984,623.25 56.0834,623.275 53.2821,624.103 C33.6247,629.909 28.4617,641.219 27.9088,657.774 C26.8908,688.253 64.1938,714.235 111.228,715.806 C158.261,717.377 197.215,693.942 198.233,663.462 C198.734,648.443 189.93,634.515 175.241,624.062 L175.241,624.062 Z "
        fill="#ffcad4" fill-opacity="1.00" />
      <g>
        <path
          d="M91.2319,544.327 C91.2319,538.968 89.5822,534.624 87.5472,534.624 C85.5122,534.624 83.8625,538.968 83.8625,544.327 C83.8625,549.685 85.5122,554.029 87.5472,554.029 C89.5822,554.029 91.2319,549.685 91.2319,544.327 Z "
          fill="#4f4f4f" fill-opacity="1.00" />
        <path
          d="M69.0232,536.119 C71.3659,533.596 74.6606,532.094 78.2415,532.259 C84.9455,532.567 90.6446,542.812 90.3162,549.948 C90.3029,550.238 90.279,550.529 90.245,550.819 C90.798,549.123 91.142,547.28 91.231,545.345 C91.6393,536.475 86.5355,529.033 79.8315,528.725 C75.3872,528.52 71.3553,531.502 69.0232,536.119 L69.0232,536.119 Z "
          fill="#4f4f4f" fill-opacity="1.00" />
      </g>
      <path
        d="M171.415,594.824 C165.138,604.413 156.302,609.96 150.573,608.39 C150.979,608.905 151.465,609.347 152.031,609.718 C157.599,613.362 167.786,607.579 174.748,596.944 C181.767,586.222 182.923,574.775 177.356,571.13 C176.813,570.775 176.196,570.433 175.555,570.325 C179.287,574.947 177.664,585.279 171.415,594.824 Z "
        fill="#f4acb7" fill-opacity="1.00" />
      <path
        d="M44.2368,530.463 C54.7501,536.596 59.0647,536.01 59.7425,541.911 C60.069,541.342 60.2986,540.726 60.4314,540.063 C61.7379,533.538 56.7003,532.959 44.2368,530.463 Z "
        fill="#f4acb7" fill-opacity="1.00" />
      <path
        d="M63.1144,499.221 C71.1101,508.397 78.448,512.586 77.2003,518.394 C77.6918,517.959 78.1067,517.449 78.4448,516.863 C81.7719,511.1 74.1224,505.576 63.1144,499.221 Z "
        fill="#f4acb7" fill-opacity="1.00" />
      <path
        d="M180.996,631.135 C170.089,634.652 159.729,633.417 156.258,628.596 C156.251,629.252 156.351,629.902 156.559,630.546 C158.601,636.879 170.161,638.779 182.258,634.878 C194.455,630.945 202.545,622.765 200.503,616.432 C200.304,615.814 200.039,615.161 199.608,614.674 C199.608,620.614 191.855,627.634 180.996,631.135 Z "
        fill="#f4acb7" fill-opacity="1.00" />
      <path
        d="M179.336,666.903 C167.875,666.903 158.394,662.548 156.571,656.895 C156.362,657.517 156.258,658.166 156.258,658.842 C156.258,665.497 166.677,670.852 179.388,670.852 C192.203,670.852 202.413,665.551 202.413,658.896 C202.413,658.247 202.361,657.544 202.101,656.949 C200.278,662.602 190.744,666.903 179.336,666.903 Z "
        fill="#f4acb7" fill-opacity="1.00" />
    </g>
    <g>
      <path
        d="M-242.111,239.816 C-252.688,256.574 -259.921,248.044 -264.763,244.744 C-270.033,241.153 -272.621,230.699 -270.926,228.48 C-266.237,222.346 -259.856,224.767 -255.308,226.573 C-250.817,228.356 -244.325,236.933 -242.111,239.816 Z "
        fill="#ecf5ff" fill-opacity="1.00" />
      <path
        d="M-236.181,346.062 C-247.115,360.053 -254.343,380.524 -255.002,401.906 C-256.204,440.903 -234.864,473.204 -207.337,474.052 C-179.811,474.9 -156.522,443.975 -155.32,404.979 C-154.443,376.537 -165.683,348.976 -182.511,335.811 C-167.533,323.108 -161.718,299.23 -169.602,276.089 C-179.411,247.297 -206.711,230.549 -230.578,238.681 C-245.769,243.856 -255.908,257.864 -258.742,274.787 C-258.92,274.761 -259.076,274.775 -259.208,274.831 L-286.958,315.477 C-280.946,320.807 -287.682,330.249 -291.932,332.118 C-294.68,333.326 -286.347,345.605 -283.604,348.657 C-280.148,352.5 -274.842,354.016 -271.557,354.226 C-267.832,354.464 -249.506,349.502 -236.181,346.062 Z "
        fill="#ebf4ff" fill-opacity="1.00" />
      <path
        d="M-227.075,444.047 C-214.946,441.982 -210.406,433.058 -212.115,423.016 C-213.824,412.975 -225.043,406.509 -237.172,408.573 C-249.301,410.638 -255.835,423.321 -254.126,433.363 C-252.416,443.404 -239.205,446.111 -227.075,444.047 Z "
        fill="#aab6c3" fill-opacity="1.00" />
      <path
        d="M-229.508,446.949 C-217.379,444.884 -208.932,435.07 -210.641,425.029 C-212.351,414.988 -223.569,408.521 -235.698,410.586 C-247.827,412.651 -256.274,422.465 -254.565,432.506 C-252.856,442.547 -241.637,449.014 -229.508,446.949 Z "
        fill="#ecf5ff" fill-opacity="1.00" />
      <path
        d="M-231.04,467.237 C-216.328,463.704 -205.761,455.179 -207.438,448.196 C-209.115,441.213 -222.401,438.416 -237.113,441.949 C-251.825,445.482 -262.392,454.008 -260.715,460.991 C-259.038,467.974 -245.752,470.771 -231.04,467.237 Z "
        fill="#ecf5ff" fill-opacity="1.00" />
      <path
        d="M-255.219,378.901 L-258.211,380.447 L-261.141,380.718 C-262.556,380.841 -262.732,381.793 -261.457,382.424 L-260.403,382.944 L-260.403,382.944 L-262.057,383.642 C-263.478,384.232 -263.418,385.57 -261.948,386.043 L-260.973,386.355 L-261.957,387.005 C-263.146,387.782 -262.852,388.703 -261.43,388.658 L-259.498,388.593 L-259.498,388.593 L-259.545,388.642 C-260.565,389.664 -260.042,390.712 -258.607,390.521 L-256.013,390.173 C-253.196,391.932 -248.806,392.886 -243.961,392.532 C-235.852,391.94 -229.538,387.908 -229.858,383.527 C-230.063,380.727 -232.929,378.462 -237.089,377.347 L-237.089,377.347 C-236.754,375.864 -236.915,374.522 -237.658,373.5 C-239.795,370.559 -245.941,371.383 -251.384,375.339 C-252.888,376.432 -254.18,377.649 -255.219,378.901 L-255.219,378.901 Z "
        fill="#ecf5ff" fill-opacity="1.00" />
      <path
        d="M-212.689,257.737 C-204.391,257.867 -178.792,265.56 -188.827,248.014 C-198.236,231.562 -212.335,223.111 -246.367,239.13 C-260.98,246.008 -270.633,259.938 -278.115,269.414 C-288.468,282.526 -299.323,312.6 -287.326,316.898 C-268.007,323.82 -273.929,304.278 -268.954,297.242 C-260.041,284.637 -243.077,269.683 -231.656,264.676 C-222.68,259.285 -220.987,257.608 -212.689,257.737 Z "
        fill="#aab6c3" fill-opacity="1.00" />
      <path
        d="M-218.366,274.124 C-209.515,269.073 -210.748,252.81 -210.748,244.66 C-210.748,241.81 -212.466,227.656 -214.001,223.18 C-216.477,215.959 -216.785,209.577 -223.181,208.407 C-230.776,207.018 -235.657,222.225 -237.658,227.2 C-239.461,231.682 -240.994,239.082 -239.064,247.897 C-236.133,261.283 -224.83,277.813 -218.366,274.124 Z "
        fill="#ecf5ff" fill-opacity="1.00" />
      <path
        d="M-217.828,271.687 C-210.626,267.577 -211.63,254.345 -211.63,247.713 C-211.63,245.395 -213.027,233.878 -214.276,230.236 C-216.291,224.36 -216.542,219.168 -221.746,218.216 C-227.926,217.085 -231.897,229.459 -233.525,233.506 C-234.992,237.154 -236.24,243.174 -234.669,250.348 C-232.284,261.239 -223.088,274.689 -217.828,271.687 Z "
        fill="#aab6c3" fill-opacity="1.00" />
      <path
        d="M-206.042,441.395 C-208.636,445.917 -205.377,451.438 -200.322,451.504 L-165.737,451.504 C-160.549,451.504 -157.29,445.917 -159.884,441.461 L-177.177,411.531 C-179.704,407.075 -186.156,407.075 -188.75,411.531 L-206.042,441.395 Z "
        fill="#ecf5ff" fill-opacity="1.00" />
      <path
        d="M-198.872,423.148 C-207.642,434.35 -181.612,447.273 -167.464,445.72 C-153.317,444.166 -157.81,448.42 -149.694,443.768 C-141.579,439.117 -141.366,446.816 -131.798,428.98 C-122.231,411.145 -132.049,368.108 -139.532,353.457 C-147.015,338.805 -157.778,322.993 -171.027,319.153 C-184.275,315.313 -214.956,350.176 -202.282,359.742 C-184.468,373.186 -187.991,380.445 -187.314,388.951 C-186.636,397.456 -187.926,400.955 -188.136,405.081 C-188.346,409.207 -191.483,413.709 -198.872,423.148 Z "
        fill="#aab6c3" fill-opacity="1.00" />
      <path
        d="M-158.123,384.189 C-160.162,385.531 -162.36,386.795 -164.7,387.971 L-164.7,387.971 C-151.507,395.407 -143.394,405.646 -143.545,416.851 C-143.844,438.921 -176.098,456.379 -215.587,455.844 C-255.076,455.309 -286.846,436.985 -286.548,414.915 C-286.391,403.352 -281.377,397.581 -267.233,390.474 C-265.131,389.418 -265.16,386.624 -267.915,385.159 C-271.266,383.377 -277.281,383.403 -280.082,384.23 C-299.74,390.036 -304.903,401.346 -305.456,417.901 C-306.474,448.38 -269.171,474.362 -222.137,475.933 C-175.103,477.504 -136.15,454.069 -135.132,423.59 C-134.63,408.57 -143.434,394.642 -158.123,384.189 L-158.123,384.189 Z "
        fill="#aab6c3" fill-opacity="1.00" />
      <g>
        <path
          d="M-242.133,304.454 C-242.133,299.095 -243.782,294.752 -245.817,294.752 C-247.852,294.752 -249.502,299.095 -249.502,304.454 C-249.502,309.812 -247.852,314.156 -245.817,314.156 C-243.782,314.156 -242.133,309.812 -242.133,304.454 Z "
          fill="#4f4f4f" fill-opacity="1.00" />
        <path
          d="M-264.341,296.246 C-261.999,293.723 -258.704,292.221 -255.123,292.386 C-248.419,292.694 -242.72,302.939 -243.048,310.075 C-243.062,310.365 -243.086,310.656 -243.12,310.946 C-242.567,309.25 -242.223,307.407 -242.134,305.472 C-241.725,296.602 -246.829,289.161 -253.533,288.852 C-257.977,288.647 -262.009,291.629 -264.341,296.246 L-264.341,296.246 Z "
          fill="#4f4f4f" fill-opacity="1.00" />
      </g>
      <path
        d="M-161.949,354.951 C-168.226,364.54 -177.063,370.088 -182.792,368.517 C-182.385,369.032 -181.899,369.475 -181.333,369.845 C-175.766,373.489 -165.578,367.706 -158.617,357.071 C-151.598,346.349 -150.441,334.902 -156.009,331.258 C-156.552,330.902 -157.169,330.56 -157.809,330.452 C-154.078,335.074 -155.701,345.406 -161.949,354.951 Z "
        fill="#77899d" fill-opacity="1.00" />
      <path
        d="M-289.128,290.591 C-278.614,296.723 -274.3,296.137 -273.622,302.038 C-273.296,301.469 -273.066,300.853 -272.933,300.19 C-271.627,293.665 -276.664,293.086 -289.128,290.591 Z "
        fill="#77899d" fill-opacity="1.00" />
      <path
        d="M-270.25,259.348 C-262.254,268.524 -254.917,272.713 -256.164,278.521 C-255.673,278.086 -255.258,277.576 -254.92,276.99 C-251.593,271.228 -259.242,265.703 -270.25,259.348 Z "
        fill="#77899d" fill-opacity="1.00" />
      <path
        d="M-152.368,391.262 C-163.276,394.779 -173.636,393.544 -177.106,388.723 C-177.114,389.379 -177.013,390.029 -176.806,390.673 C-174.764,397.006 -163.204,398.906 -151.106,395.005 C-138.91,391.072 -130.819,382.892 -132.861,376.559 C-133.061,375.941 -133.326,375.288 -133.757,374.801 C-133.757,380.742 -141.51,387.761 -152.368,391.262 Z "
        fill="#77899d" fill-opacity="1.00" />
      <path
        d="M-154.029,427.03 C-165.49,427.03 -174.971,422.675 -176.794,417.022 C-177.002,417.644 -177.107,418.293 -177.107,418.969 C-177.107,425.624 -166.688,430.98 -153.977,430.98 C-141.162,430.98 -130.951,425.678 -130.951,419.024 C-130.951,418.374 -131.003,417.671 -131.264,417.076 C-133.087,422.729 -142.62,427.03 -154.029,427.03 Z "
        fill="#77899d" fill-opacity="1.00" />
    </g>
    <g>
      <path
        d="M0.231078,-103.051 C-10.3466,-86.293 -17.579,-94.8225 -22.4212,-98.1222 C-27.6917,-101.714 -30.2796,-112.168 -28.584,-114.386 C-23.895,-120.521 -17.5144,-118.1 -12.9659,-116.294 C-8.47573,-114.51 -1.98292,-105.934 0.231078,-103.051 Z "
        fill="#ecf5ff" fill-opacity="1.00" />
      <path
        d="M6.16053,3.19521 C-4.77288,17.186 -12.0014,37.6573 -12.6605,59.0398 C-13.8624,98.0364 7.47794,130.337 35.0044,131.185 C62.5309,132.034 85.8199,101.109 87.0218,62.1121 C87.8984,33.6705 76.6584,6.1094 59.8305,-7.05569 C74.8091,-19.7585 80.6238,-43.6365 72.7397,-66.7777 C62.9305,-95.5691 35.6307,-112.317 11.7639,-104.186 C-3.42721,-99.0105 -13.566,-85.003 -16.4004,-68.0792 C-16.578,-68.1053 -16.734,-68.0919 -16.8661,-68.0353 L-44.6166,-27.39 C-38.6044,-22.0596 -45.3401,-12.6175 -49.5906,-10.7484 C-52.3381,-9.54016 -44.0057,2.7388 -41.2619,5.79031 C-37.8063,9.63335 -32.5006,11.1498 -29.2157,11.3594 C-25.4906,11.5972 -7.16398,6.63507 6.16053,3.19521 Z "
        fill="#ebf4ff" fill-opacity="1.00" />
      <path
        d="M15.2663,101.18 C27.3955,99.1152 31.9361,90.1909 30.2267,80.1496 C28.5174,70.1082 17.2991,63.6419 5.1699,65.7067 C-6.95929,67.7714 -13.4932,80.4548 -11.7839,90.4962 C-10.0746,100.537 3.13709,103.245 15.2663,101.18 Z "
        fill="#aab6c3" fill-opacity="1.00" />
      <path
        d="M12.8336,104.082 C24.9628,102.018 33.4098,92.2037 31.7005,82.1624 C29.9912,72.1211 18.7728,65.6548 6.64363,67.7195 C-5.48556,69.7842 -13.9325,79.5981 -12.2232,89.6395 C-10.5139,99.6808 0.704426,106.147 12.8336,104.082 Z "
        fill="#ecf5ff" fill-opacity="1.00" />
      <path
        d="M11.3015,124.371 C26.0136,120.838 36.5805,112.312 34.9035,105.329 C33.2264,98.346 19.9404,95.5493 5.2283,99.0825 C-9.48377,102.616 -20.0507,111.141 -18.3737,118.124 C-16.6966,125.107 -3.41059,127.904 11.3015,124.371 Z "
        fill="#ecf5ff" fill-opacity="1.00" />
      <path
        d="M-12.8772,36.0346 L-15.8688,37.5805 L-18.7995,37.8511 C-20.2146,37.9749 -20.3904,38.9261 -19.1149,39.5575 L-18.0612,40.0772 L-18.0612,40.0772 L-19.7151,40.7752 C-21.1366,41.3651 -21.0759,42.7035 -19.6062,43.1761 L-18.631,43.4879 L-19.6154,44.138 C-20.8045,44.9151 -20.5105,45.8367 -19.088,45.7912 L-17.156,45.7268 L-17.156,45.7268 L-17.2037,45.7751 C-18.2234,46.7973 -17.7001,47.845 -16.2649,47.6545 L-13.6714,47.3061 C-10.8545,49.0658 -6.46468,50.0197 -1.61935,49.6656 C6.48955,49.073 12.8036,45.0414 12.4834,40.6609 C12.2788,37.8604 9.4124,35.5953 5.25256,34.4804 L5.25256,34.4804 C5.58741,32.9978 5.42653,31.6555 4.68365,30.6334 C2.54633,27.6928 -3.59908,28.5162 -9.04251,32.4726 C-10.5459,33.5653 -11.8386,34.7827 -12.8772,36.0346 L-12.8772,36.0346 Z "
        fill="#ecf5ff" fill-opacity="1.00" />
      <path
        d="M29.6529,-85.1295 C37.9508,-85 63.5498,-77.3069 53.5151,-94.8524 C44.1058,-111.304 30.0063,-119.756 -4.02502,-103.737 C-18.6381,-96.8585 -28.2908,-82.9283 -35.7732,-73.4524 C-46.1267,-60.3404 -56.9809,-30.2665 -44.9844,-25.9685 C-25.6648,-19.0469 -31.5873,-38.5891 -26.6121,-45.625 C-17.6992,-58.2297 -0.735188,-73.1837 10.6855,-78.1902 C19.6617,-83.5815 21.355,-85.259 29.6529,-85.1295 Z "
        fill="#aab6c3" fill-opacity="1.00" />
      <path
        d="M23.9758,-68.7429 C32.8266,-73.794 31.5934,-90.0566 31.5934,-98.2068 C31.5934,-101.056 29.8757,-115.21 28.3406,-119.687 C25.8643,-126.908 25.5568,-133.289 19.1611,-134.459 C11.5656,-135.849 6.68465,-120.642 4.68384,-115.667 C2.88099,-111.185 1.34723,-103.785 3.27779,-94.9693 C6.20902,-81.584 17.5118,-65.0539 23.9758,-68.7429 Z "
        fill="#ecf5ff" fill-opacity="1.00" />
      <path
        d="M24.5137,-71.1794 C31.7154,-75.2893 30.7119,-88.5217 30.7119,-95.1533 C30.7119,-97.4718 29.3143,-108.989 28.0652,-112.631 C26.0503,-118.506 25.8001,-123.699 20.5961,-124.651 C14.4159,-125.782 10.4444,-113.408 8.81639,-109.36 C7.34947,-105.713 6.10149,-99.6922 7.67233,-92.519 C10.0574,-81.6278 19.2542,-68.1777 24.5137,-71.1794 Z "
        fill="#aab6c3" fill-opacity="1.00" />
      <path
        d="M36.2994,98.528 C33.7054,103.051 36.9645,108.571 42.0193,108.638 L76.6048,108.638 C81.7926,108.638 85.0516,103.051 82.4577,98.5945 L65.165,68.6648 C62.6376,64.2085 56.186,64.2085 53.5921,68.6648 L36.2994,98.528 Z "
        fill="#ecf5ff" fill-opacity="1.00" />
      <path
        d="M43.4693,80.2818 C34.7,91.4833 60.7299,104.407 74.8775,102.853 C89.0251,101.3 84.5321,105.553 92.6475,100.902 C100.763,96.2503 100.976,103.949 110.544,86.1139 C120.111,68.2786 110.293,25.2415 102.81,10.59 C95.3265,-4.06142 84.5636,-19.8738 71.3151,-23.7138 C58.0667,-27.5538 27.3852,7.30961 40.0601,16.8755 C57.8737,30.3195 54.3506,37.5788 55.028,46.0842 C55.7054,54.5896 54.416,58.088 54.2056,62.2144 C53.9953,66.3408 50.859,70.8425 43.4693,80.2818 Z "
        fill="#aab6c3" fill-opacity="1.00" />
      <path
        d="M84.2184,41.3228 C82.1796,42.6648 79.9819,43.9281 77.6414,45.1041 L77.6414,45.1041 C90.8344,52.5402 98.9482,62.7795 98.7965,73.984 C98.4978,96.054 66.2434,113.512 26.7544,112.977 C-12.7346,112.443 -44.5046,94.1182 -44.2059,72.0482 C-44.0493,60.4854 -39.0353,54.7139 -24.8912,47.6072 C-22.7898,46.5514 -22.8182,43.7576 -25.5731,42.2926 C-28.9244,40.5106 -34.9394,40.536 -37.7408,41.3634 C-57.3982,47.1698 -62.5612,58.4794 -63.1141,75.0342 C-64.1321,105.514 -26.829,131.495 20.2047,133.066 C67.2383,134.637 106.192,111.202 107.21,80.723 C107.712,65.703 98.9072,51.7753 84.2184,41.3228 L84.2184,41.3228 Z "
        fill="#aab6c3" fill-opacity="1.00" />
      <g>
        <path
          d="M0.209026,-38.4128 C0.209026,-43.7712 -1.44067,-48.115 -3.47566,-48.115 C-5.51066,-48.115 -7.16035,-43.7712 -7.16035,-38.4128 C-7.16035,-33.0544 -5.51066,-28.7106 -3.47566,-28.7106 C-1.44067,-28.7106 0.209026,-33.0544 0.209026,-38.4128 Z "
          fill="#4f4f4f" fill-opacity="1.00" />
        <path
          d="M-21.9996,-46.6203 C-19.657,-49.1433 -16.3623,-50.6455 -12.7814,-50.4807 C-6.07732,-50.1722 -0.378187,-39.9273 -0.706607,-32.7914 C-0.719952,-32.5015 -0.743823,-32.2109 -0.777793,-31.9202 C-0.224805,-33.6163 0.119145,-35.4594 0.208197,-37.3943 C0.616455,-46.2649 -4.4873,-53.7061 -11.1914,-54.0146 C-15.6356,-54.2192 -19.6675,-51.2378 -21.9996,-46.6203 L-21.9996,-46.6203 Z "
          fill="#4f4f4f" fill-opacity="1.00" />
      </g>
      <path
        d="M80.3924,12.0847 C74.1153,21.6736 65.2788,27.221 59.5501,25.6501 C59.9565,26.1652 60.4426,26.6079 61.0084,26.9783 C66.5759,30.6229 76.7634,24.8391 83.7252,14.2042 C90.744,3.48207 91.9005,-7.96452 86.333,-11.6091 C85.7899,-11.9646 85.1729,-12.3062 84.5324,-12.4142 C88.2638,-7.79236 86.6409,2.53945 80.3924,12.0847 Z "
        fill="#77899d" fill-opacity="1.00" />
      <path
        d="M-46.7861,-52.2761 C-36.2727,-46.1433 -31.9581,-46.7297 -31.2803,-40.8284 C-30.9538,-41.3975 -30.7242,-42.0136 -30.5914,-42.6767 C-29.285,-49.2014 -34.3225,-49.7805 -46.7861,-52.2761 Z "
        fill="#77899d" fill-opacity="1.00" />
      <path
        d="M-27.9085,-83.5188 C-19.9127,-74.3422 -12.5749,-70.1535 -13.8225,-64.3459 C-13.331,-64.7805 -12.9162,-65.2906 -12.5781,-65.8762 C-9.25094,-71.639 -16.9005,-77.1633 -27.9085,-83.5188 Z "
        fill="#77899d" fill-opacity="1.00" />
      <path
        d="M89.9736,48.3954 C79.066,51.9127 68.7059,50.6776 65.2355,45.8566 C65.2282,46.5126 65.3282,47.1625 65.5358,47.8061 C67.578,54.1392 79.1377,56.0391 91.2353,52.1381 C103.432,48.2051 111.523,40.0256 109.48,33.6925 C109.281,33.0746 109.016,32.4213 108.585,31.9348 C108.585,37.875 100.832,44.8941 89.9736,48.3954 Z "
        fill="#77899d" fill-opacity="1.00" />
      <path
        d="M88.3129,84.1637 C76.8522,84.1637 67.371,79.8087 65.5477,74.1553 C65.3394,74.7774 65.2352,75.4266 65.2352,76.1029 C65.2352,82.7571 75.654,88.1129 88.365,88.1129 C101.18,88.1129 111.391,82.8112 111.391,76.1569 C111.391,75.5078 111.338,74.8045 111.078,74.2094 C109.255,79.8628 99.7215,84.1637 88.3129,84.1637 Z "
        fill="#77899d" fill-opacity="1.00" />
    </g>
    <g>
      <path
        d="M7.19309,804.67 C-3.38455,821.428 -10.617,812.898 -15.4591,809.599 C-20.7297,806.007 -23.3176,795.553 -21.6219,793.335 C-16.933,787.2 -10.5524,789.621 -6.00393,791.427 C-1.51371,793.211 4.97909,801.787 7.19309,804.67 Z "
        fill="#a2a2a2" fill-opacity="1.00" />
      <path
        d="M13.1225,910.916 C2.18914,924.907 -5.03941,945.378 -5.69844,966.761 C-6.90035,1005.76 14.44,1038.06 41.9664,1038.91 C69.4929,1039.75 92.7819,1008.83 93.9838,969.833 C94.8604,941.391 83.6204,913.83 66.7925,900.665 C81.7711,887.962 87.5859,864.084 79.7017,840.943 C69.8925,812.152 42.5927,795.403 18.7259,803.535 C3.53481,808.71 -6.60404,822.718 -9.43842,839.642 C-9.61602,839.616 -9.77199,839.629 -9.90408,839.686 L-37.6546,880.331 C-31.6424,885.661 -38.3781,895.103 -42.6286,896.973 C-45.376,898.181 -37.0437,910.46 -34.2999,913.511 C-30.8443,917.354 -25.5386,918.871 -22.2537,919.08 C-18.5286,919.318 -0.20197,914.356 13.1225,910.916 Z "
        fill="#a1a1a1" fill-opacity="1.00" />
      <path
        d="M18.3219,1009.79 C30.4511,1007.73 38.8981,997.912 37.1887,987.87 C35.4794,977.829 24.2611,971.363 12.1319,973.428 C0.0027198,975.492 -6.53123,988.176 -4.82192,998.217 C-3.1126,1008.26 6.1927,1011.86 18.3219,1009.79 Z "
        fill="#757575" fill-opacity="1.00" />
      <path
        d="M19.7956,1011.8 C31.9248,1009.74 40.3718,999.925 38.6625,989.883 C36.9532,979.842 25.7348,973.376 13.6056,975.44 C1.47646,977.505 -6.97052,987.319 -5.26121,997.36 C-3.55189,1007.4 7.66644,1013.87 19.7956,1011.8 Z "
        fill="#a2a2a2" fill-opacity="1.00" />
      <path
        d="M18.2635,1032.09 C32.9756,1028.56 43.5425,1020.03 41.8655,1013.05 C40.1884,1006.07 26.9024,1003.27 12.1903,1006.8 C-2.52176,1010.34 -13.0887,1018.86 -11.4117,1025.85 C-9.7346,1032.83 3.55142,1035.62 18.2635,1032.09 Z "
        fill="#a2a2a2" fill-opacity="1.00" />
      <path
        d="M-5.91516,943.755 L-8.9068,945.301 L-11.8374,945.572 C-13.2525,945.696 -13.4284,946.647 -12.1529,947.278 L-11.0992,947.798 L-11.0992,947.798 L-12.7531,948.496 C-14.1745,949.086 -14.1138,950.424 -12.6442,950.897 L-11.669,951.209 L-12.6534,951.859 C-13.8425,952.636 -13.5485,953.558 -12.126,953.512 L-10.194,953.448 L-10.194,953.448 L-10.2416,953.496 C-11.2614,954.518 -10.7381,955.566 -9.30292,955.375 L-6.70944,955.027 C-3.89247,956.787 0.497332,957.741 5.34266,957.387 C13.4516,956.794 19.7656,952.762 19.4455,948.382 C19.2408,945.581 16.3744,943.316 12.2146,942.201 L12.2146,942.201 C12.5494,940.719 12.3885,939.376 11.6457,938.354 C9.50835,935.414 3.36294,936.237 -2.0805,940.193 C-3.58394,941.286 -4.87658,942.504 -5.91516,943.755 L-5.91516,943.755 Z "
        fill="#a2a2a2" fill-opacity="1.00" />
      <path
        d="M36.615,822.591 C44.9128,822.721 70.5118,830.414 60.4771,812.868 C51.0678,796.416 36.9683,787.965 2.93699,803.984 C-11.6761,810.862 -21.3288,824.793 -28.8112,834.269 C-39.1647,847.381 -50.0189,877.454 -38.0224,881.752 C-18.7028,888.674 -24.6253,869.132 -19.6501,862.096 C-10.7372,849.491 6.22682,834.537 17.6475,829.531 C26.6237,824.139 28.3171,822.462 36.615,822.591 Z "
        fill="#52086c" fill-opacity="1.00" />
      <path
        d="M30.9379,838.978 C39.7886,833.927 38.5554,817.664 38.5554,809.514 C38.5554,806.665 36.8377,792.51 35.3026,788.034 C32.8263,780.813 32.5188,774.431 26.1231,773.261 C18.5276,771.872 13.6467,787.079 11.6458,792.054 C9.84301,796.536 8.30924,803.936 10.2398,812.752 C13.171,826.137 24.4738,842.667 30.9379,838.978 Z "
        fill="#a2a2a2" fill-opacity="1.00" />
      <path
        d="M31.4758,836.542 C38.6774,832.432 37.6739,819.199 37.6739,812.568 C37.6739,810.249 36.2763,798.732 35.0272,795.09 C33.0123,789.214 32.7621,784.022 27.5582,783.07 C21.3779,781.939 17.4064,794.313 15.7784,798.361 C14.3115,802.008 13.0635,808.029 14.6343,815.202 C17.0194,826.093 26.2162,839.543 31.4758,836.542 Z "
        fill="#53096d" fill-opacity="1.00" />
      <path
        d="M43.2614,1006.25 C40.6675,1010.77 43.9265,1016.29 48.9813,1016.36 L83.5668,1016.36 C88.7546,1016.36 92.0136,1010.77 89.4197,1006.32 L72.127,976.386 C69.5996,971.929 63.148,971.929 60.5541,976.386 L43.2614,1006.25 Z "
        fill="#a2a2a2" fill-opacity="1.00" />
      <path
        d="M50.4313,988.003 C41.662,999.204 67.6919,1012.13 81.8395,1010.57 C95.9871,1009.02 91.4941,1013.27 99.6095,1008.62 C107.725,1003.97 107.938,1011.67 117.506,993.835 C127.073,976 117.255,932.962 109.772,918.311 C102.289,903.659 91.5256,887.847 78.2772,884.007 C65.0287,880.167 34.3473,915.031 47.0222,924.596 C64.8357,938.04 61.3126,945.3 61.9901,953.805 C62.6675,962.311 61.378,965.809 61.1677,969.935 C60.9573,974.062 57.821,978.563 50.4313,988.003 Z "
        fill="#53096d" fill-opacity="1.00" />
      <path
        d="M91.1804,949.044 C89.1416,950.386 86.9439,951.649 84.6034,952.825 L84.6034,952.825 C97.7964,960.261 105.91,970.5 105.759,981.705 C105.46,1003.77 73.2054,1021.23 33.7164,1020.7 C-5.77264,1020.16 -37.5426,1001.84 -37.2438,979.769 C-37.0873,968.206 -32.0733,962.435 -17.9292,955.328 C-15.8278,954.272 -15.8562,951.478 -18.6111,950.014 C-21.9624,948.231 -27.9774,948.257 -30.7787,949.084 C-50.4361,954.891 -55.5991,966.2 -56.1521,982.755 C-57.1701,1013.23 -19.867,1039.22 27.1667,1040.79 C74.2004,1042.36 113.154,1018.92 114.172,988.444 C114.674,973.424 105.869,959.496 91.1804,949.044 L91.1804,949.044 Z "
        fill="#53096d" fill-opacity="1.00" />
      <g>
        <path
          d="M7.17104,869.308 C7.17104,863.95 5.52135,859.606 3.48635,859.606 C1.45135,859.606 -0.198339,863.95 -0.198339,869.308 C-0.198339,874.667 1.45135,879.01 3.48635,879.01 C5.52135,879.01 7.17104,874.667 7.17104,869.308 Z "
          fill="#4f4f4f" fill-opacity="1.00" />
        <path
          d="M-15.0376,861.101 C-12.695,858.578 -9.40026,857.075 -5.81937,857.24 C0.88469,857.549 6.58383,867.794 6.25541,874.929 C6.24206,875.219 6.21819,875.51 6.18422,875.801 C6.73721,874.105 7.08116,872.262 7.17021,870.327 C7.57847,861.456 2.47471,854.015 -4.22934,853.706 C-8.67363,853.502 -12.7055,856.483 -15.0376,861.101 L-15.0376,861.101 Z "
          fill="#4f4f4f" fill-opacity="1.00" />
      </g>
      <path
        d="M87.3544,919.806 C81.0774,929.395 72.2408,934.942 66.5121,933.371 C66.9185,933.886 67.4046,934.329 67.9704,934.699 C73.5379,938.344 83.7254,932.56 90.6872,921.925 C97.7061,911.203 98.8625,899.756 93.295,896.112 C92.7519,895.756 92.1349,895.415 91.4944,895.307 C95.2258,899.929 93.6029,910.26 87.3544,919.806 Z "
        fill="#ffffff" fill-opacity="1.00" />
      <path
        d="M-39.8241,855.445 C-29.3107,861.578 -24.9961,860.991 -24.3183,866.893 C-23.9918,866.323 -23.7622,865.707 -23.6294,865.044 C-22.3229,858.52 -27.3605,857.94 -39.8241,855.445 Z "
        fill="#ffffff" fill-opacity="1.00" />
      <path
        d="M-20.9465,824.202 C-12.9507,833.379 -5.61285,837.567 -6.86053,843.375 C-6.369,842.94 -5.95417,842.43 -5.61605,841.845 C-2.28893,836.082 -9.93844,830.558 -20.9465,824.202 Z "
        fill="#ffffff" fill-opacity="1.00" />
      <path
        d="M96.9357,956.116 C86.028,959.634 75.6679,958.398 72.1976,953.577 C72.1902,954.234 72.2903,954.883 72.4978,955.527 C74.54,961.86 86.0997,963.76 98.1973,959.859 C110.394,955.926 118.485,947.747 116.442,941.413 C116.243,940.796 115.978,940.142 115.547,939.656 C115.547,945.596 107.794,952.615 96.9357,956.116 Z "
        fill="#ffffff" fill-opacity="1.00" />
      <path
        d="M95.2749,991.885 C83.8142,991.885 74.333,987.53 72.5097,981.876 C72.3014,982.498 72.1972,983.148 72.1972,983.824 C72.1972,990.478 82.616,995.834 95.327,995.834 C108.142,995.834 118.353,990.532 118.353,983.878 C118.353,983.229 118.3,982.525 118.04,981.93 C116.217,987.584 106.683,991.885 95.2749,991.885 Z "
        fill="#ffffff" fill-opacity="1.00" />
    </g>
    <g>
      <path
        d="M-106.8,488.261 C-117.378,505.019 -124.61,496.49 -129.453,493.19 C-134.723,489.598 -137.311,479.144 -135.615,476.926 C-130.926,470.791 -124.546,473.212 -119.997,475.019 C-115.507,476.802 -109.014,485.378 -106.8,488.261 Z "
        fill="#5dd39e" fill-opacity="1.00" />
      <path
        d="M-100.871,594.507 C-111.804,608.498 -119.033,628.969 -119.692,650.352 C-120.894,689.348 -99.5535,721.649 -72.027,722.497 C-44.5005,723.346 -21.2115,692.421 -20.0096,653.424 C-19.133,624.983 -30.3731,597.421 -47.2009,584.256 C-32.2224,571.554 -26.4076,547.676 -34.2917,524.534 C-44.1009,495.743 -71.4007,478.995 -95.2676,487.126 C-110.459,492.302 -120.597,506.309 -123.432,523.233 C-123.609,523.207 -123.765,523.22 -123.898,523.277 L-151.648,563.922 C-145.636,569.252 -152.372,578.695 -156.622,580.564 C-159.369,581.772 -151.037,594.051 -148.293,597.102 C-144.838,600.945 -139.532,602.462 -136.247,602.671 C-132.522,602.909 -114.195,597.947 -100.871,594.507 Z "
        fill="#5dd39e" fill-opacity="1.00" />
      <path
        d="M-95.6715,693.382 C-83.5424,691.317 -75.0954,681.503 -76.8047,671.462 C-78.514,661.42 -89.7323,654.954 -101.862,657.019 C-113.991,659.083 -120.525,671.767 -118.815,681.808 C-117.106,691.85 -107.801,695.446 -95.6715,693.382 Z "
        fill="#348aa7" fill-opacity="1.00" />
      <path
        d="M-94.1978,695.394 C-82.0686,693.33 -73.6216,683.516 -75.331,673.474 C-77.0403,663.433 -88.2586,656.967 -100.388,659.032 C-112.517,661.096 -120.964,670.91 -119.255,680.951 C-117.545,690.993 -106.327,697.459 -94.1978,695.394 Z "
        fill="#5dd39e" fill-opacity="1.00" />
      <path
        d="M-95.73,715.683 C-81.0179,712.15 -70.4509,703.624 -72.128,696.641 C-73.805,689.658 -87.0911,686.861 -101.803,690.395 C-116.515,693.928 -127.082,702.453 -125.405,709.436 C-123.728,716.419 -110.442,719.216 -95.73,715.683 Z "
        fill="#5dd39e" fill-opacity="1.00" />
      <path
        d="M-119.909,627.347 L-122.9,628.893 L-125.831,629.163 C-127.246,629.287 -127.422,630.238 -126.146,630.87 L-125.093,631.389 L-125.093,631.389 L-126.747,632.087 C-128.168,632.677 -128.107,634.016 -126.638,634.488 L-125.662,634.8 L-126.647,635.45 C-127.836,636.227 -127.542,637.149 -126.119,637.103 L-124.187,637.039 L-124.187,637.039 L-124.235,637.087 C-125.255,638.109 -124.732,639.157 -123.296,638.967 L-120.703,638.618 C-117.886,640.378 -113.496,641.332 -108.651,640.978 C-100.542,640.385 -94.2278,636.353 -94.548,631.973 C-94.7526,629.172 -97.619,626.907 -101.779,625.792 L-101.779,625.792 C-101.444,624.31 -101.605,622.968 -102.348,621.945 C-104.485,619.005 -110.631,619.828 -116.074,623.785 C-117.577,624.877 -118.87,626.095 -119.909,627.347 L-119.909,627.347 Z "
        fill="#5dd39e" fill-opacity="1.00" />
      <path
        d="M-77.3785,506.183 C-69.0806,506.312 -43.4817,514.005 -53.5164,496.46 C-62.9257,480.008 -77.0252,471.556 -111.056,487.575 C-125.67,494.453 -135.322,508.384 -142.805,517.86 C-153.158,530.972 -164.012,561.046 -152.016,565.344 C-132.696,572.265 -138.619,552.723 -133.644,545.687 C-124.731,533.082 -107.767,518.128 -96.3459,513.122 C-87.3697,507.731 -85.6764,506.053 -77.3785,506.183 Z "
        fill="#525174" fill-opacity="1.00" />
      <path
        d="M-83.0556,522.569 C-74.2048,517.518 -75.4381,501.255 -75.4381,493.105 C-75.4381,490.256 -77.1557,476.102 -78.6908,471.625 C-81.1672,464.404 -81.4746,458.023 -87.8703,456.853 C-95.4659,455.463 -100.347,470.67 -102.348,475.645 C-104.15,480.127 -105.684,487.527 -103.754,496.343 C-100.822,509.728 -89.5196,526.258 -83.0556,522.569 Z "
        fill="#5dd39e" fill-opacity="1.00" />
      <path
        d="M-82.5177,520.133 C-75.3161,516.023 -76.3195,502.79 -76.3195,496.159 C-76.3195,493.84 -77.7172,482.323 -78.9662,478.681 C-80.9811,472.806 -81.2313,467.613 -86.4353,466.661 C-92.6156,465.53 -96.587,477.904 -98.215,481.952 C-99.682,485.599 -100.93,491.62 -99.3591,498.793 C-96.974,509.684 -87.7773,523.134 -82.5177,520.133 Z "
        fill="#525174" fill-opacity="1.00" />
      <path
        d="M-70.7321,689.84 C-73.326,694.363 -70.067,699.883 -65.0122,699.95 L-30.4266,699.95 C-25.2388,699.95 -21.9798,694.363 -24.5737,689.907 L-41.8665,659.977 C-44.3939,655.521 -50.8454,655.521 -53.4393,659.977 L-70.7321,689.84 Z "
        fill="#5dd39e" fill-opacity="1.00" />
      <path
        d="M-63.5622,671.594 C-72.3314,682.795 -46.3016,695.719 -32.1539,694.165 C-18.0063,692.612 -22.4994,696.865 -14.3839,692.214 C-6.26844,687.562 -6.05546,695.261 3.51213,677.426 C13.0797,659.591 3.26136,616.554 -4.22178,601.902 C-11.7049,587.251 -22.4678,571.438 -35.7163,567.598 C-48.9648,563.758 -79.6462,598.622 -66.9713,608.188 C-49.1577,621.632 -52.6808,628.891 -52.0034,637.396 C-51.326,645.902 -52.6154,649.4 -52.8258,653.526 C-53.0362,657.653 -56.1724,662.155 -63.5622,671.594 Z "
        fill="#525174" fill-opacity="1.00" />
      <path
        d="M-22.8131,632.635 C-24.8518,633.977 -27.0495,635.24 -29.39,636.416 L-29.39,636.416 C-16.197,643.852 -8.08323,654.091 -8.23491,665.296 C-8.53368,687.366 -40.7881,704.824 -80.2771,704.289 C-119.766,703.755 -151.536,685.43 -151.237,663.36 C-151.081,651.797 -146.067,646.026 -131.923,638.919 C-129.821,637.863 -129.85,635.07 -132.605,633.605 C-135.956,631.823 -141.971,631.848 -144.772,632.675 C-164.43,638.482 -169.593,649.791 -170.146,666.346 C-171.164,696.826 -133.86,722.807 -86.8268,724.378 C-39.7931,725.949 -0.839501,702.514 0.178496,672.035 C0.680155,657.015 -8.12419,643.087 -22.8131,632.635 L-22.8131,632.635 Z "
        fill="#525174" fill-opacity="1.00" />
      <g>
        <path
          d="M-106.822,552.899 C-106.822,547.541 -108.472,543.197 -110.507,543.197 C-112.542,543.197 -114.192,547.541 -114.192,552.899 C-114.192,558.258 -112.542,562.601 -110.507,562.601 C-108.472,562.601 -106.822,558.258 -106.822,552.899 Z "
          fill="#4f4f4f" fill-opacity="1.00" />
        <path
          d="M-129.031,544.692 C-126.688,542.169 -123.394,540.666 -119.813,540.831 C-113.109,541.14 -107.41,551.385 -107.738,558.521 C-107.751,558.811 -107.775,559.101 -107.809,559.392 C-107.256,557.696 -106.912,555.853 -106.823,553.918 C-106.415,545.047 -111.519,537.606 -118.223,537.297 C-122.667,537.093 -126.699,540.074 -129.031,544.692 L-129.031,544.692 Z "
          fill="#4f4f4f" fill-opacity="1.00" />
      </g>
      <path
        d="M-26.639,603.397 C-32.9161,612.986 -41.7526,618.533 -47.4813,616.962 C-47.0749,617.477 -46.5888,617.92 -46.023,618.29 C-40.4556,621.935 -30.2681,616.151 -23.3063,605.516 C-16.2874,594.794 -15.131,583.348 -20.6984,579.703 C-21.2416,579.347 -21.8585,579.006 -22.4991,578.898 C-18.7676,583.52 -20.3905,593.851 -26.639,603.397 Z "
        fill="#348aa7" fill-opacity="1.00" />
      <path
        d="M-153.818,539.036 C-143.304,545.169 -138.99,544.582 -138.312,550.484 C-137.985,549.915 -137.756,549.298 -137.623,548.635 C-136.316,542.111 -141.354,541.532 -153.818,539.036 Z "
        fill="#348aa7" fill-opacity="1.00" />
      <path
        d="M-134.94,507.793 C-126.944,516.97 -119.606,521.159 -120.854,526.966 C-120.362,526.532 -119.948,526.021 -119.609,525.436 C-116.282,519.673 -123.932,514.149 -134.94,507.793 Z "
        fill="#348aa7" fill-opacity="1.00" />
      <path
        d="M-17.0578,639.707 C-27.9654,643.225 -38.3256,641.99 -41.7959,637.169 C-41.8033,637.825 -41.7032,638.475 -41.4957,639.118 C-39.4535,645.451 -27.8937,647.351 -15.7962,643.45 C-3.59946,639.517 4.49114,631.338 2.44896,625.005 C2.24972,624.387 1.9843,623.733 1.55377,623.247 C1.55349,629.187 -6.19973,636.206 -17.0578,639.707 Z "
        fill="#348aa7" fill-opacity="1.00" />
      <path
        d="M-18.7186,675.476 C-30.1793,675.476 -39.6604,671.121 -41.4837,665.467 C-41.6921,666.089 -41.7963,666.739 -41.7963,667.415 C-41.7963,674.069 -31.3774,679.425 -18.6665,679.425 C-5.85133,679.425 4.35912,674.123 4.35912,667.469 C4.35912,666.82 4.30702,666.116 4.04655,665.521 C2.22326,671.175 -7.30996,675.476 -18.7186,675.476 Z "
        fill="#348aa7" fill-opacity="1.00" />
    </g>
    <path d="M-37.2682,5.22592 L-11.2594,1.58014 " fill="none" stroke-width="1.86" stroke="#778a9d"
      stroke-linecap="round" stroke-linejoin="round" />
  </g>
</svg>